<?xml version="1.0" encoding="utf-8"?>
<!-- Generator: Adobe Illustrator 16.0.3, SVG Export Plug-In . SVG Version: 6.00 Build 0)  -->
<!DOCTYPE svg PUBLIC "-//W3C//DTD SVG 1.1//EN" "http://www.w3.org/Graphics/SVG/1.1/DTD/svg11.dtd">
<svg version="1.1" xmlns="http://www.w3.org/2000/svg" xmlns:xlink="http://www.w3.org/1999/xlink" x="0px" y="0px" width="50px"
	 height="50px" viewBox="0 0 50 50" enable-background="new 0 0 50 50" xml:space="preserve">
<g id="Layer_2">
	<circle fill="#1A6D89" cx="25" cy="25" r="25"/>
</g>
<g id="Layer_3">
	<path fill="#183D51" d="M32.967,13.754l-0.781-0.928c-1.592-1.681-3.787-2.812-6.287-3.043c-0.559-0.052-1.11-0.054-1.651-0.015
		l-0.001-0.001c-0.025,0.002-0.051,0.005-0.076,0.008c-0.119,0.009-0.238,0.02-0.354,0.034c-0.023,0.002-0.046,0.006-0.069,0.009
		c-0.387,0.048-0.769,0.117-1.142,0.209c-0.032,0.007-0.064,0.014-0.096,0.022c-0.092,0.024-0.183,0.05-0.273,0.076
		c-0.056,0.017-0.113,0.031-0.169,0.049c-0.082,0.024-0.164,0.052-0.245,0.079c-0.064,0.021-0.128,0.043-0.191,0.066
		c-0.076,0.026-0.152,0.056-0.228,0.084c-0.066,0.026-0.133,0.051-0.199,0.079c-0.072,0.03-0.144,0.061-0.215,0.092
		c-0.068,0.029-0.135,0.061-0.203,0.091c-0.069,0.033-0.137,0.064-0.205,0.098c-0.069,0.034-0.139,0.071-0.208,0.107
		c-0.063,0.033-0.127,0.066-0.19,0.1c-0.073,0.042-0.145,0.083-0.217,0.125c-0.057,0.033-0.115,0.065-0.171,0.1
		c-0.083,0.052-0.167,0.105-0.249,0.16c-0.042,0.027-0.085,0.054-0.129,0.083c-0.123,0.082-0.243,0.167-0.362,0.256
		c-0.035,0.025-0.069,0.053-0.104,0.08c-0.084,0.064-0.168,0.129-0.251,0.197c-0.044,0.036-0.086,0.074-0.13,0.111
		c-0.071,0.06-0.142,0.12-0.211,0.182c-0.045,0.041-0.089,0.082-0.134,0.124c-0.065,0.061-0.131,0.122-0.195,0.185
		c-0.044,0.043-0.088,0.088-0.132,0.133c-0.062,0.063-0.124,0.127-0.183,0.192c-0.042,0.045-0.084,0.092-0.126,0.138
		c-0.06,0.066-0.119,0.135-0.177,0.203c-0.039,0.046-0.078,0.093-0.116,0.14c-0.059,0.07-0.116,0.145-0.173,0.218
		c-0.035,0.045-0.07,0.09-0.104,0.136c-0.06,0.082-0.118,0.165-0.177,0.248c-0.027,0.04-0.057,0.08-0.083,0.122
		c-0.075,0.111-0.148,0.225-0.217,0.339c-0.009,0.014-0.018,0.027-0.027,0.042c-0.078,0.129-0.154,0.262-0.228,0.396
		c-0.02,0.036-0.036,0.073-0.056,0.108c-0.051,0.098-0.103,0.196-0.151,0.296c-0.024,0.05-0.046,0.101-0.07,0.152
		c-0.041,0.087-0.08,0.175-0.119,0.264c-0.024,0.057-0.046,0.114-0.07,0.171c-0.034,0.085-0.068,0.171-0.1,0.258
		c-0.022,0.06-0.043,0.119-0.064,0.18c-0.031,0.086-0.06,0.173-0.087,0.26c-0.019,0.061-0.038,0.123-0.057,0.185
		c-0.026,0.088-0.05,0.178-0.074,0.267c-0.017,0.061-0.033,0.123-0.048,0.186c-0.023,0.094-0.043,0.187-0.063,0.281
		c-0.012,0.061-0.026,0.121-0.038,0.181c-0.02,0.103-0.037,0.208-0.053,0.313c-0.008,0.051-0.019,0.104-0.025,0.156
		c-0.022,0.157-0.041,0.315-0.056,0.476c-0.02,0.211-0.03,0.421-0.035,0.632c-0.002,0.054-0.002,0.109-0.003,0.163
		c-0.001,0.188,0,0.373,0.009,0.559c0.001,0.022,0,0.046,0.002,0.07c0.011,0.203,0.029,0.404,0.053,0.604
		c0.007,0.054,0.014,0.108,0.022,0.162c0.022,0.167,0.048,0.332,0.08,0.497c0.007,0.038,0.013,0.077,0.02,0.115
		c0.039,0.193,0.084,0.382,0.135,0.57c0.014,0.055,0.03,0.108,0.045,0.163c0.042,0.147,0.088,0.296,0.137,0.442
		c0.017,0.049,0.031,0.098,0.049,0.146c0.063,0.179,0.132,0.354,0.206,0.529c0.021,0.053,0.045,0.104,0.069,0.157
		c0.06,0.134,0.122,0.266,0.186,0.396c0.027,0.054,0.054,0.109,0.082,0.162c0.086,0.166,0.175,0.329,0.271,0.487
		c0.016,0.027,0.032,0.054,0.049,0.081c0.023,0.039,0.047,0.074,0.071,0.112c0.065,0.104,0.132,0.207,0.201,0.308
		c0.028,0.04,0.054,0.081,0.081,0.12c0.01,0.014,0.021,0.028,0.032,0.043c0.104,0.146,0.21,0.29,0.322,0.429
		c0.003,0.004,0.006,0.009,0.009,0.012c0.041,0.05,0.083,0.1,0.126,0.149c0.053,0.063,0.104,0.129,0.161,0.192l2.166,2.578
		l-0.159,1.725l-0.492-0.046l-0.368,0.307l0.306,0.364l-0.038,0.412l-0.367,0.301l0.305,0.369l-0.038,0.41l-0.368,0.306l0.306,0.365
		l-0.038,0.41l-0.369,0.307l0.307,0.363l-0.038,0.412l-0.368,0.306l0.307,0.363l-0.039,0.415l-0.368,0.302l0.306,0.364v0.003
		l0.003,0.001l1.639,1.951l-0.091,0.985c-0.018,0.186,0.038,0.378,0.169,0.534l8.482,10.102c9.394-1.532,17.213-8.219,20.064-17.267
		L32.967,13.754z"/>
</g>
<g id="Layer_1">
	<polygon fill="#FFFFFF" points="32.238,8.525 32.238,13.832 37.535,13.832 37.535,41.475 12.465,41.475 12.465,8.525 	"/>
	<g>
		<polygon fill="#E6E9EE" points="32.238,8.525 37.535,13.832 32.238,13.832 		"/>
		<rect x="15.416" y="11.178" fill="#E6E9EE" width="8.911" height="1.129"/>
		<rect x="15.416" y="13.832" fill="#E6E9EE" width="6.188" height="1.129"/>
		<path fill="#E6E9EE" d="M17.664,20.277c-0.228,0-0.406,0.079-0.515,0.237c-0.119,0.159-0.168,0.367-0.168,0.624
			s0.06,0.475,0.168,0.624C17.268,21.921,17.436,22,17.664,22c0.228,0,0.406-0.079,0.515-0.238c0.119-0.158,0.168-0.366,0.168-0.624
			s-0.06-0.465-0.168-0.624C18.06,20.356,17.891,20.277,17.664,20.277z M17.911,21.544c-0.05,0.099-0.139,0.148-0.248,0.148
			s-0.198-0.049-0.248-0.148c-0.05-0.099-0.08-0.237-0.08-0.406s0.03-0.297,0.08-0.406c0.049-0.099,0.139-0.148,0.248-0.148
			s0.188,0.05,0.248,0.148c0.049,0.099,0.079,0.238,0.079,0.406C17.98,21.307,17.96,21.445,17.911,21.544z"/>
		<polygon fill="#E6E9EE" points="18.871,21.98 19.228,21.98 19.228,20.317 18.555,20.317 18.555,20.634 18.871,20.634 		"/>
		<path fill="#E6E9EE" d="M20.268,20.277c-0.228,0-0.406,0.079-0.515,0.237c-0.119,0.159-0.168,0.367-0.168,0.624
			s0.06,0.475,0.168,0.624C19.871,21.921,20.04,22,20.268,22c0.228,0,0.406-0.079,0.515-0.238c0.119-0.158,0.168-0.366,0.168-0.624
			s-0.06-0.465-0.168-0.624C20.664,20.356,20.495,20.277,20.268,20.277z M20.515,21.544c-0.049,0.099-0.138,0.148-0.247,0.148
			c-0.109,0-0.198-0.049-0.248-0.148c-0.05-0.099-0.08-0.237-0.08-0.406s0.03-0.297,0.08-0.406c0.049-0.099,0.138-0.148,0.248-0.148
			c0.109,0,0.188,0.05,0.247,0.148c0.05,0.099,0.08,0.238,0.08,0.406C20.584,21.307,20.564,21.445,20.515,21.544z"/>
		<polygon fill="#E6E9EE" points="21.475,21.98 21.832,21.98 21.832,20.317 21.158,20.317 21.158,20.634 21.475,20.634 		"/>
		<path fill="#E6E9EE" d="M22.871,20.277c-0.228,0-0.406,0.079-0.515,0.237c-0.119,0.159-0.168,0.367-0.168,0.624
			s0.06,0.475,0.168,0.624C22.475,21.921,22.644,22,22.871,22c0.228,0,0.406-0.079,0.515-0.238c0.119-0.158,0.168-0.366,0.168-0.624
			s-0.06-0.465-0.168-0.624C23.268,20.356,23.099,20.277,22.871,20.277z M23.119,21.544c-0.049,0.099-0.139,0.148-0.248,0.148
			s-0.198-0.049-0.248-0.148c-0.049-0.099-0.079-0.237-0.079-0.406s0.03-0.297,0.079-0.406c0.05-0.099,0.139-0.148,0.248-0.148
			s0.188,0.05,0.248,0.148c0.05,0.099,0.08,0.238,0.08,0.406C23.188,21.307,23.168,21.445,23.119,21.544z"/>
		<polygon fill="#E6E9EE" points="24.079,21.98 24.436,21.98 24.436,20.317 23.762,20.317 23.762,20.634 24.079,20.634 		"/>
		<path fill="#E6E9EE" d="M25.475,22c0.228,0,0.406-0.079,0.515-0.238c0.119-0.158,0.168-0.366,0.168-0.624
			s-0.059-0.465-0.168-0.624c-0.119-0.158-0.287-0.237-0.515-0.237c-0.228,0-0.406,0.079-0.515,0.237
			c-0.119,0.159-0.168,0.367-0.168,0.624s0.06,0.475,0.168,0.624C25.069,21.921,25.238,22,25.475,22z M25.228,20.743
			c0.05-0.099,0.139-0.148,0.248-0.148s0.189,0.049,0.248,0.148c0.05,0.099,0.079,0.237,0.079,0.406s-0.029,0.297-0.079,0.406
			c-0.049,0.099-0.139,0.148-0.248,0.148s-0.198-0.05-0.248-0.148c-0.049-0.099-0.079-0.238-0.079-0.406
			C25.148,20.97,25.178,20.842,25.228,20.743z"/>
		<path fill="#E6E9EE" d="M17.664,25.04c-0.228,0-0.406,0.079-0.515,0.238c-0.119,0.158-0.168,0.366-0.168,0.623
			c0,0.258,0.06,0.476,0.168,0.625c0.119,0.158,0.287,0.236,0.515,0.236c0.228,0,0.406-0.078,0.515-0.236
			c0.119-0.159,0.168-0.367,0.168-0.625c0-0.257-0.06-0.465-0.168-0.623C18.06,25.119,17.891,25.04,17.664,25.04z M17.911,26.307
			c-0.05,0.1-0.139,0.148-0.248,0.148s-0.198-0.049-0.248-0.148c-0.05-0.099-0.08-0.237-0.08-0.406c0-0.168,0.03-0.297,0.08-0.405
			c0.049-0.099,0.139-0.148,0.248-0.148s0.188,0.049,0.248,0.148c0.049,0.099,0.079,0.237,0.079,0.405
			C17.98,26.069,17.96,26.208,17.911,26.307z"/>
		<polygon fill="#E6E9EE" points="18.871,26.742 19.228,26.742 19.228,25.079 18.555,25.079 18.555,25.396 18.871,25.396 		"/>
		<path fill="#E6E9EE" d="M20.268,25.04c-0.228,0-0.406,0.079-0.515,0.238c-0.119,0.158-0.168,0.366-0.168,0.623
			c0,0.258,0.06,0.476,0.168,0.625c0.119,0.158,0.287,0.236,0.515,0.236c0.228,0,0.406-0.078,0.515-0.236
			c0.119-0.159,0.168-0.367,0.168-0.625c0-0.257-0.06-0.465-0.168-0.623C20.664,25.119,20.495,25.04,20.268,25.04z M20.515,26.307
			c-0.049,0.1-0.138,0.148-0.247,0.148c-0.109,0-0.198-0.049-0.248-0.148c-0.05-0.099-0.08-0.237-0.08-0.406
			c0-0.168,0.03-0.297,0.08-0.405c0.049-0.099,0.138-0.148,0.248-0.148c0.109,0,0.188,0.049,0.247,0.148
			c0.05,0.099,0.08,0.237,0.08,0.405C20.584,26.069,20.564,26.208,20.515,26.307z"/>
		<polygon fill="#E6E9EE" points="21.475,26.742 21.832,26.742 21.832,25.079 21.158,25.079 21.158,25.396 21.475,25.396 		"/>
		<path fill="#E6E9EE" d="M22.871,25.04c-0.228,0-0.406,0.079-0.515,0.238c-0.119,0.158-0.168,0.366-0.168,0.623
			c0,0.258,0.06,0.476,0.168,0.625c0.119,0.158,0.287,0.236,0.515,0.236c0.228,0,0.406-0.078,0.515-0.236
			c0.119-0.159,0.168-0.367,0.168-0.625c0-0.257-0.06-0.465-0.168-0.623C23.268,25.119,23.099,25.04,22.871,25.04z M23.119,26.307
			c-0.049,0.1-0.139,0.148-0.248,0.148s-0.198-0.049-0.248-0.148c-0.049-0.099-0.079-0.237-0.079-0.406
			c0-0.168,0.03-0.297,0.079-0.405c0.05-0.099,0.139-0.148,0.248-0.148s0.188,0.049,0.248,0.148c0.05,0.099,0.08,0.237,0.08,0.405
			C23.188,26.069,23.168,26.208,23.119,26.307z"/>
		<polygon fill="#E6E9EE" points="24.079,26.742 24.436,26.742 24.436,25.079 23.762,25.079 23.762,25.396 24.079,25.396 		"/>
		<path fill="#E6E9EE" d="M25.475,25.04c-0.228,0-0.406,0.079-0.515,0.238c-0.119,0.158-0.168,0.366-0.168,0.623
			c0,0.258,0.06,0.476,0.168,0.625c0.119,0.158,0.287,0.236,0.515,0.236c0.228,0,0.406-0.078,0.515-0.236
			c0.119-0.159,0.168-0.367,0.168-0.625c0-0.257-0.059-0.465-0.168-0.623C25.871,25.119,25.703,25.04,25.475,25.04z M25.723,26.307
			c-0.049,0.1-0.139,0.148-0.248,0.148s-0.198-0.049-0.248-0.148c-0.049-0.099-0.079-0.237-0.079-0.406
			c0-0.168,0.03-0.297,0.079-0.405c0.05-0.099,0.139-0.148,0.248-0.148s0.189,0.049,0.248,0.148c0.05,0.099,0.079,0.237,0.079,0.405
			C25.792,26.069,25.772,26.208,25.723,26.307z"/>
		<path fill="#E6E9EE" d="M17.664,29.813c-0.228,0-0.406,0.078-0.515,0.236c-0.119,0.159-0.168,0.367-0.168,0.625
			c0,0.257,0.06,0.475,0.168,0.623c0.119,0.158,0.287,0.238,0.515,0.238c0.228,0,0.406-0.08,0.515-0.238
			c0.119-0.158,0.168-0.366,0.168-0.623c0-0.258-0.06-0.466-0.168-0.625C18.06,29.891,17.891,29.813,17.664,29.813z M17.911,31.069
			c-0.05,0.099-0.139,0.148-0.248,0.148s-0.198-0.05-0.248-0.148c-0.05-0.099-0.08-0.237-0.08-0.405c0-0.169,0.03-0.298,0.08-0.406
			c0.049-0.1,0.139-0.148,0.248-0.148s0.188,0.049,0.248,0.148c0.049,0.099,0.079,0.237,0.079,0.406
			C17.98,30.842,17.96,30.971,17.911,31.069z"/>
		<polygon fill="#E6E9EE" points="18.871,31.515 19.228,31.515 19.228,29.842 18.555,29.842 18.555,30.158 18.871,30.158 		"/>
		<path fill="#E6E9EE" d="M20.268,29.813c-0.228,0-0.406,0.078-0.515,0.236c-0.119,0.159-0.168,0.367-0.168,0.625
			c0,0.257,0.06,0.475,0.168,0.623c0.119,0.158,0.287,0.238,0.515,0.238c0.228,0,0.406-0.08,0.515-0.238
			c0.119-0.158,0.168-0.366,0.168-0.623c0-0.258-0.06-0.466-0.168-0.625C20.664,29.891,20.495,29.813,20.268,29.813z M20.515,31.069
			c-0.049,0.099-0.138,0.148-0.247,0.148c-0.109,0-0.198-0.05-0.248-0.148c-0.05-0.099-0.08-0.237-0.08-0.405
			c0-0.169,0.03-0.298,0.08-0.406c0.049-0.1,0.138-0.148,0.248-0.148c0.109,0,0.188,0.049,0.247,0.148
			c0.05,0.099,0.08,0.237,0.08,0.406C20.584,30.842,20.564,30.971,20.515,31.069z"/>
		<path fill="#E6E9EE" d="M21.911,29.813c-0.228,0-0.406,0.078-0.515,0.236c-0.119,0.159-0.168,0.367-0.168,0.625
			c0,0.257,0.06,0.475,0.168,0.623c0.119,0.158,0.287,0.238,0.515,0.238c0.228,0,0.406-0.08,0.515-0.238s0.168-0.366,0.168-0.623
			c0-0.258-0.06-0.466-0.168-0.625C22.307,29.891,22.139,29.813,21.911,29.813z M22.158,31.069
			c-0.049,0.099-0.138,0.148-0.247,0.148c-0.109,0-0.198-0.05-0.248-0.148c-0.05-0.099-0.08-0.237-0.08-0.405
			c0-0.169,0.03-0.298,0.08-0.406c0.049-0.1,0.138-0.148,0.248-0.148c0.109,0,0.188,0.049,0.247,0.148
			c0.05,0.099,0.08,0.237,0.08,0.406C22.228,30.842,22.208,30.971,22.158,31.069z"/>
		<polygon fill="#E6E9EE" points="22.802,30.158 23.119,30.158 23.119,31.515 23.475,31.515 23.475,29.842 22.802,29.842 		"/>
		<path fill="#E6E9EE" d="M24.515,29.813c-0.228,0-0.406,0.078-0.515,0.236c-0.119,0.159-0.168,0.367-0.168,0.625
			c0,0.257,0.06,0.475,0.168,0.623c0.119,0.158,0.287,0.238,0.515,0.238c0.228,0,0.406-0.08,0.515-0.238
			c0.119-0.158,0.168-0.366,0.168-0.623c0-0.258-0.06-0.466-0.168-0.625C24.911,29.891,24.743,29.813,24.515,29.813z M24.762,31.069
			c-0.049,0.099-0.139,0.148-0.248,0.148s-0.198-0.05-0.247-0.148c-0.05-0.099-0.08-0.237-0.08-0.405c0-0.169,0.03-0.298,0.08-0.406
			c0.049-0.1,0.138-0.148,0.247-0.148s0.188,0.049,0.248,0.148c0.05,0.099,0.08,0.237,0.08,0.406
			C24.832,30.842,24.812,30.971,24.762,31.069z"/>
		<polygon fill="#E6E9EE" points="25.406,30.158 25.723,30.158 25.723,31.515 26.079,31.515 26.079,29.842 25.406,29.842 		"/>
		<path fill="#E6E9EE" d="M16.703,34.574c-0.228,0-0.406,0.079-0.515,0.238c-0.119,0.158-0.168,0.365-0.168,0.623
			s0.059,0.476,0.168,0.624c0.119,0.158,0.287,0.237,0.515,0.237c0.228,0,0.406-0.079,0.515-0.237
			c0.119-0.159,0.168-0.366,0.168-0.624s-0.06-0.465-0.168-0.623C17.099,34.653,16.931,34.574,16.703,34.574z M16.951,35.842
			c-0.05,0.099-0.139,0.148-0.248,0.148s-0.198-0.05-0.248-0.148c-0.05-0.1-0.079-0.238-0.079-0.406s0.029-0.297,0.079-0.406
			c0.049-0.099,0.139-0.148,0.248-0.148s0.188,0.05,0.248,0.148c0.049,0.1,0.079,0.238,0.079,0.406S17,35.732,16.951,35.842z"/>
		<polygon fill="#E6E9EE" points="17.594,34.931 17.911,34.931 17.911,36.277 18.268,36.277 18.268,34.613 17.594,34.613 		"/>
		<path fill="#E6E9EE" d="M19.307,34.574c-0.228,0-0.406,0.079-0.515,0.238c-0.119,0.158-0.168,0.365-0.168,0.623
			s0.06,0.476,0.168,0.624c0.119,0.158,0.287,0.237,0.515,0.237c0.228,0,0.406-0.079,0.515-0.237
			c0.119-0.159,0.168-0.366,0.168-0.624s-0.06-0.465-0.168-0.623C19.703,34.653,19.535,34.574,19.307,34.574z M19.555,35.842
			c-0.05,0.099-0.139,0.148-0.248,0.148s-0.198-0.05-0.248-0.148c-0.05-0.1-0.08-0.238-0.08-0.406s0.03-0.297,0.08-0.406
			c0.049-0.099,0.139-0.148,0.248-0.148s0.188,0.05,0.248,0.148c0.049,0.1,0.079,0.238,0.079,0.406
			C19.624,35.604,19.604,35.732,19.555,35.842z"/>
		<polygon fill="#E6E9EE" points="20.198,34.931 20.515,34.931 20.515,36.277 20.871,36.277 20.871,34.613 20.198,34.613 		"/>
		<path fill="#E6E9EE" d="M21.911,34.574c-0.228,0-0.406,0.079-0.515,0.238c-0.119,0.158-0.168,0.365-0.168,0.623
			s0.06,0.476,0.168,0.624c0.119,0.158,0.287,0.237,0.515,0.237c0.228,0,0.406-0.079,0.515-0.237
			c0.109-0.159,0.168-0.366,0.168-0.624s-0.06-0.465-0.168-0.623C22.307,34.653,22.139,34.574,21.911,34.574z M22.158,35.842
			c-0.049,0.099-0.138,0.148-0.247,0.148c-0.109,0-0.198-0.05-0.248-0.148c-0.05-0.1-0.08-0.238-0.08-0.406s0.03-0.297,0.08-0.406
			c0.049-0.099,0.138-0.148,0.248-0.148c0.109,0,0.188,0.05,0.247,0.148c0.05,0.1,0.08,0.238,0.08,0.406
			C22.228,35.604,22.208,35.732,22.158,35.842z"/>
		<polygon fill="#E6E9EE" points="22.802,34.931 23.119,34.931 23.119,36.277 23.475,36.277 23.475,34.613 22.802,34.613 		"/>
		<path fill="#E6E9EE" d="M24.515,34.574c-0.228,0-0.406,0.079-0.515,0.238c-0.119,0.158-0.168,0.365-0.168,0.623
			s0.06,0.476,0.168,0.624c0.119,0.158,0.287,0.237,0.515,0.237c0.228,0,0.406-0.079,0.515-0.237
			c0.119-0.159,0.168-0.366,0.168-0.624s-0.06-0.465-0.168-0.623C24.911,34.653,24.743,34.574,24.515,34.574z M24.762,35.842
			c-0.049,0.099-0.139,0.148-0.248,0.148s-0.198-0.05-0.247-0.148c-0.05-0.1-0.08-0.238-0.08-0.406s0.03-0.297,0.08-0.406
			c0.049-0.099,0.138-0.148,0.247-0.148s0.188,0.05,0.248,0.148c0.05,0.1,0.08,0.238,0.08,0.406
			C24.832,35.604,24.812,35.732,24.762,35.842z"/>
		<polygon fill="#E6E9EE" points="25.406,34.931 25.723,34.931 25.723,36.277 26.079,36.277 26.079,34.613 25.406,34.613 		"/>
	</g>
	<path fill="#FFD05B" d="M33.535,26.089c-0.09-0.386-0.238-0.742-0.436-1.059l0.297-0.624l-0.723-0.723l-0.625,0.297
		c-0.316-0.208-0.683-0.356-1.059-0.445l-0.229-0.653h-1.02l-0.228,0.653c-0.386,0.089-0.742,0.238-1.06,0.445l-0.623-0.297
		l-0.723,0.723l0.297,0.624c-0.208,0.317-0.357,0.683-0.445,1.059l-0.654,0.228v1.02l0.654,0.229
		c0.088,0.387,0.237,0.742,0.445,1.059l-0.327,0.635l0.723,0.723l0.624-0.297c0.326,0.207,0.684,0.355,1.06,0.445l0.228,0.653h1.02
		l0.229-0.653c0.386-0.09,0.742-0.238,1.059-0.445l0.624,0.297l0.723-0.723l-0.297-0.624c0.198-0.327,0.356-0.683,0.436-1.06
		l0.653-0.228v-1.021L33.535,26.089z M30.238,28.326c-0.822,0-1.496-0.673-1.496-1.494c0-0.822,0.674-1.496,1.496-1.496
		c0.821,0,1.494,0.673,1.494,1.496C31.732,27.653,31.069,28.326,30.238,28.326z"/>
	<path fill="#FF7058" d="M29.228,31.347l0.545-1.426l-1-0.495c0.089-0.545,0.069-1.1-0.05-1.624l0.971-0.554l-0.624-1.396
		l-1.06,0.356c-0.316-0.436-0.713-0.822-1.178-1.119l0.297-1.069l-1.426-0.545l-0.495,1c-0.544-0.089-1.099-0.069-1.624,0.05
		l-0.554-0.97l-1.396,0.624l0.356,1.06c-0.436,0.317-0.822,0.713-1.119,1.178l-1.069-0.297l-0.544,1.426l1,0.494
		c-0.089,0.545-0.069,1.1,0.05,1.625l-0.971,0.554l0.624,1.396l1.06-0.355c0.316,0.436,0.712,0.821,1.178,1.119l-0.297,1.068
		l1.426,0.545l0.495-1c0.544,0.089,1.099,0.069,1.624-0.05L26,33.911l1.396-0.624l-0.357-1.06c0.436-0.316,0.822-0.713,1.119-1.179
		L29.228,31.347z M23.703,30.871c-1.178-0.455-1.772-1.771-1.317-2.95s1.772-1.772,2.95-1.317c1.178,0.456,1.773,1.773,1.317,2.951
		C26.198,30.732,24.881,31.316,23.703,30.871z"/>
</g>
</svg>
