<?xml version="1.0" encoding="utf-8"?>
<!-- Generator: Adobe Illustrator 16.0.3, SVG Export Plug-In . SVG Version: 6.00 Build 0)  -->
<!DOCTYPE svg PUBLIC "-//W3C//DTD SVG 1.1//EN" "http://www.w3.org/Graphics/SVG/1.1/DTD/svg11.dtd">
<svg version="1.1" xmlns="http://www.w3.org/2000/svg" xmlns:xlink="http://www.w3.org/1999/xlink" x="0px" y="0px" width="480px"
	 height="480px" viewBox="0 0 480 480" enable-background="new 0 0 480 480" xml:space="preserve">
<g id="bg">
	<path fill="#1A6D89" d="M240,2c132.549,0,240,105.452,240,238c0,137.88-107.453,240-240,240S0,377.88,0,240
		C0,107.452,107.452,2,240,2z"/>
</g>
<g id="sh">
	<path fill="#183D51" d="M211.618,414.074l65.126,63.126C391.851,459.517,480,365.388,480,240c0-0.639-0.02-1.273-0.024-1.91
		L336.432,96.545L211.618,414.074z"/>
</g>
<g id="neck">
	<rect x="200" y="275.955" fill="#FCD088" width="80" height="80"/>
	<rect x="240.275" y="275.955" fill="#DDAB62" width="39.73" height="80"/>
</g>
<g id="shirt">
	<path fill="#D9EDEC" d="M334.72,340.969l-42.394-8.479l-7.492-10.938c-1.402-2.047-4.057-2.818-6.336-1.842l-39.182,16.88
		l-38.947-16.862c-2.264-0.988-4.911-0.246-6.332,1.773l-7.731,10.987l-42.394,8.479c-21.585,4.318-37.121,23.27-37.121,45.281
		v56.856C144.768,468.308,190.323,481,239.316,481c48.994,0,94.549-12.692,132.525-37.896v-56.856
		C371.842,364.236,356.305,345.285,334.72,340.969z"/>
	<path fill="#C7D8D7" d="M372.528,386.253c0-22.012-15.538-40.965-37.122-45.281l-42.394-8.479l-7.492-10.938
		c-1.402-2.047-4.057-2.818-6.337-1.842l-38.909,16.763v144.521c48.888-0.053,94.348-12.734,132.255-37.89v-56.854H372.528
		L372.528,386.253z"/>
	<circle fill="#ADADAD" cx="240.274" cy="391.842" r="4.041"/>
	<circle fill="#ADADAD" cx="240.274" cy="413.255" r="4.041"/>
	<circle fill="#ADADAD" cx="240.274" cy="434.67" r="4.041"/>
</g>
<g id="hair1">
	<path fill="#494948" d="M337,194.717c0,0-0.674,76.23-20.068,84.85c-19.394,8.619-99.961,15.75-147.07,5.387
		c-26.936-5.928-14.275-97.104-14.275-97.104"/>
	<path fill="#333333" d="M239.433,192.546v98.907c34.048-0.857,66.026-5.359,77.306-10.373
		c19.395-8.619,20.068-84.848,20.068-84.848L239.433,192.546z"/>
</g>
<g id="fce">
	<path fill="#FFEDB5" d="M326.085,194.598c0.43-3.979,0.654-7.901,0.654-11.727c0-50.601-38.713-91.62-86.465-91.62
		c-47.752,0-86.465,41.019-86.465,91.62c0,3.825,0.225,7.747,0.654,11.727c-8.386,2.181-12.376,15.082-8.912,28.891
		c3.476,13.853,13.138,23.364,21.58,21.246c0.77-0.193,1.487-0.505,2.18-0.869c15.625,31.361,41.579,56.807,70.962,56.807
		c29.383,0,55.338-25.443,70.962-56.807c0.694,0.365,1.411,0.676,2.181,0.869c8.441,2.118,18.103-7.393,21.58-21.246
		C338.461,209.68,334.471,196.776,326.085,194.598z"/>
	<path fill="#E8CF89" d="M325.811,194.6c0.43-3.979,0.654-7.901,0.654-11.727c0-50.505-38.566-91.459-86.195-91.614v209.405
		c29.271-0.156,55.116-25.533,70.692-56.799c0.694,0.366,1.411,0.678,2.181,0.869c8.441,2.119,18.103-7.392,21.58-21.244
		C338.187,209.682,334.196,196.778,325.811,194.6z"/>
</g>
<g id="hair2">
	<path fill="#494948" d="M191.381,162c0,0,37.576,35.959,114.343,23.03c0,0,7.443-1.873,20.086,9.569
		c0,0,23.147-48.357,10.623-98.054c0,0-40.809,5.253-58.99-6.061c-18.183-11.313-66.667-23.435-77.576,10.505
		c0,0-35.152-4.445-44.848,31.919c-9.697,36.364-0.828,61.69-0.828,61.69S172.391,150.687,191.381,162z"/>
	<g>
		<path fill="#333333" d="M336.432,96.545c0,0-40.809,5.253-58.99-6.061c-8.259-5.139-22.771-10.429-37.172-11.509v105.478
			c17.21,3.682,39.004,5.032,65.455,0.577c0,0,7.443-1.874,20.086,9.569C325.811,194.6,348.957,146.243,336.432,96.545z"/>
	</g>
</g>
<g id="hphones">
	<path fill="#940030" d="M144.303,235.215L144.303,235.215c-4.206,0-7.615-3.656-7.615-8.169v-26.331
		c0-4.512,3.409-8.169,7.615-8.169l0,0c4.207,0,7.616,3.657,7.616,8.169v26.331C151.917,231.559,148.507,235.215,144.303,235.215z"
		/>
	<path fill="#940030" d="M336.247,194.598L336.247,194.598c4.205,0,7.613,3.657,7.613,8.169v26.331c0,4.512-3.408,8.169-7.613,8.169
		l0,0c-4.208,0-7.615-3.657-7.615-8.169v-26.331C328.632,198.255,332.041,194.598,336.247,194.598z"/>
	<path fill="#FF6262" d="M334.402,183.31c-0.148-50.782-41.5-92.05-92.316-92.05c-50.036,0-90.874,40.018-92.256,89.726
		c-5.028,1.579-8.675,6.274-8.675,11.821v47.678c0,6.842,5.546,12.391,12.391,12.391h2.963c6.843,0,12.391-5.547,12.391-12.391
		v-47.678c0-3.07-1.123-5.873-2.972-8.039v-1.186c0-41.994,34.167-76.161,76.161-76.161c41.336,0,75.063,33.108,76.111,74.196
		c-4.191,1.986-7.1,6.243-7.1,11.189v47.678c0,6.842,5.547,12.391,12.393,12.391h2.961c6.844,0,12.393-5.547,12.393-12.391v-47.678
		C338.846,188.992,337.117,185.581,334.402,183.31z"/>
	<path fill="#FF0F27" d="M334.46,183.309c-0.149-50.782-41.5-92.05-92.316-92.05c-0.881,0-1.753,0.04-2.626,0.066v16.164
		c0.875-0.029,1.745-0.066,2.626-0.066c41.336,0,75.063,33.108,76.111,74.196c-4.192,1.986-7.1,6.242-7.1,11.189v47.678
		c0,6.842,5.547,12.391,12.392,12.391h2.962c6.843,0,12.392-5.547,12.392-12.391v-47.678
		C338.902,188.991,337.174,185.58,334.46,183.309z"/>
</g>
</svg>
