<?xml version="1.0" encoding="utf-8"?>
<!-- Generator: Adobe Illustrator 16.0.3, SVG Export Plug-In . SVG Version: 6.00 Build 0)  -->
<!DOCTYPE svg PUBLIC "-//W3C//DTD SVG 1.1//EN" "http://www.w3.org/Graphics/SVG/1.1/DTD/svg11.dtd">
<svg version="1.1" xmlns="http://www.w3.org/2000/svg" xmlns:xlink="http://www.w3.org/1999/xlink" x="0px" y="0px" width="50px"
	 height="50px" viewBox="0 0 50 50" enable-background="new 0 0 50 50" xml:space="preserve">
<g id="bg">
	<g id="Layer_2">
		<circle fill="#1A6D89" cx="25" cy="25" r="25"/>
	</g>
</g>
<g id="sh">
	<g id="Layer_3">
		<path fill="#183D51" d="M31.656,13.906L18.5,36.891l2.021-0.057v0.003L18.5,36.891l2.813,2.142l0.938,0.719
			c0.006,0.187,0.235,0.156,0.383,0.294l9.53,8.895c8.972-2.687,15.766-10.256,17.419-19.532L31.656,13.906z"/>
	</g>
</g>
<g id="browser">
	<path fill="#FFFFFF" d="M8.99,17.98v18.654c0,0.148,0.119,0.257,0.257,0.257h31.495c0.148,0,0.258-0.119,0.258-0.257V17.98H8.99z"
		/>
	<path fill="#FF7058" d="M41.01,18.06v-3.178c0-0.901-0.732-1.634-1.633-1.634H10.624c-0.901,0-1.633,0.732-1.633,1.634v3.178H41.01
		z"/>
	<path fill="#FFFFFF" d="M27.99,16.822H12.287c-0.644,0-1.158-0.515-1.158-1.158l0,0c0-0.644,0.515-1.159,1.158-1.159H27.99
		c0.644,0,1.158,0.515,1.158,1.159l0,0C29.148,16.297,28.634,16.822,27.99,16.822z"/>
	<g>
		<circle fill="#FFD05B" cx="37.693" cy="15.683" r="1.178"/>
		<circle fill="#FFD05B" cx="34.268" cy="15.683" r="1.178"/>
	</g>
	<g>
		<path fill="#324A5E" d="M12.376,16.089h-0.238l-0.277-0.812h0.238l0.158,0.485l0.159-0.485h0.218l0.158,0.485l0.159-0.485h0.237
			l-0.277,0.812h-0.238l-0.148-0.445L12.376,16.089z"/>
		<path fill="#324A5E" d="M13.732,16.089h-0.237l-0.277-0.812h0.238l0.158,0.485l0.159-0.485h0.218l0.158,0.485l0.159-0.485h0.237
			l-0.277,0.812H14.03l-0.148-0.445L13.732,16.089z"/>
		<path fill="#324A5E" d="M15.089,16.089h-0.237l-0.277-0.812h0.238l0.158,0.485l0.159-0.485h0.218l0.158,0.485l0.159-0.485h0.237
			l-0.277,0.812h-0.237l-0.148-0.445L15.089,16.089z"/>
	</g>
</g>
<g id="line">
	<polygon fill="#2C9984" points="15.951,32.168 14.931,31.387 21.624,22.703 28.139,29.01 34.316,24.069 35.119,25.079 
		28.061,30.732 21.762,24.634 	"/>
</g>
<g id="p1">
	<circle fill="#4CDBC4" cx="34.723" cy="24.574" r="2.396"/>
</g>
<g id="p2">
	<circle fill="#4CDBC4" cx="28.1" cy="29.634" r="2.396"/>
</g>
<g id="p3">
	<circle fill="#4CDBC4" cx="21.693" cy="23.673" r="2.396"/>
</g>
<g id="p4">
	<circle fill="#4CDBC4" cx="15.277" cy="31.772" r="2.396"/>
</g>
</svg>
