<?xml version="1.0" encoding="utf-8"?>
<!-- Generator: Adobe Illustrator 16.0.3, SVG Export Plug-In . SVG Version: 6.00 Build 0)  -->
<!DOCTYPE svg PUBLIC "-//W3C//DTD SVG 1.1//EN" "http://www.w3.org/Graphics/SVG/1.1/DTD/svg11.dtd">
<svg version="1.1" xmlns="http://www.w3.org/2000/svg" xmlns:xlink="http://www.w3.org/1999/xlink" x="0px" y="0px" width="50px"
	 height="50px" viewBox="0 0 50 50" enable-background="new 0 0 50 50" xml:space="preserve">
<g id="Layer_2">
	<circle fill="#1A6D89" cx="25" cy="25" r="25"/>
</g>
<g id="Layer_3">
	<path fill="#183D51" d="M31.656,13.906l-1.844-0.659c-9.271-0.126-3.627,2.756-6.094,2.841c-0.551,0.019,1.054,0.93,0.531,1.036
		l-0.161-0.264c-0.933,4.676-0.761,5.888-0.683-1.584c1.096-0.229,2.695,22.479-0.313-0.215c-0.022,0.006-1.041,1.021-1.063,1.026
		c-0.372,0.096-0.614,6.72-2.25-1.089c-0.031,0.011-3.507,4.275-0.484-0.495c-0.086,0.035-0.396,0.736-0.481,0.772
		c-0.053,0.023,1.143-1.458,1.091-1.434c-0.077,0.035-0.708,4.523-0.313,0.813c-0.06,0.029-1.628,0.188-1.688,0.219
		c-0.071,0.037-0.867-0.538-0.938-0.5c-0.062,0.034,0.53,0.715,0.469,0.75c-0.067,0.039-3.97,2.976-0.927-0.684
		c-0.063,0.038-1.359,1.609-1.421,1.648c-0.063,0.041-0.482,0.526-0.544,0.567c-0.064,0.042,1.768-0.611,1.706-0.567
		c-0.058,0.041-0.6,1.4-0.656,1.442c-0.066,0.05,0.373,0.477,0.307,0.528c-0.051,0.039,0.712,0.618,0.662,0.659
		c-0.076,0.061-0.083-2.951-0.156-2.887c-0.039,0.032-0.808,0.607-0.845,0.641c-0.109,0.097,0.919-0.892,0.813-0.789
		c-0.031,0.029,1.329-0.061,1.298-0.03c-0.075,0.074-0.288-0.23-0.361-0.153c-0.038,0.042-0.816,0.923-0.854,0.964
		c-0.062,0.068,0.832-2.684,0.772-2.614c-0.039,0.046,0.101-0.549,0.062-0.503c-0.056,0.068-0.112,0.137-0.167,0.207
		c-0.037,0.048-0.075,0.098-0.111,0.147c-0.053,0.07-0.105,0.141-0.155,0.212c-0.036,0.051-0.071,0.102-0.106,0.152
		c-0.05,0.073-0.099,0.147-0.146,0.222c-0.033,0.051-0.065,0.101-0.097,0.153c-0.048,0.078-0.095,0.158-0.141,0.237
		c-0.029,0.049-0.057,0.098-0.085,0.147c-0.048,0.088-0.094,0.177-0.141,0.267c-0.022,0.043-0.046,0.086-0.067,0.13
		c-0.059,0.12-0.115,0.24-0.169,0.362c-0.007,0.015-0.014,0.029-0.021,0.044c-0.061,0.138-0.118,0.278-0.173,0.419
		c-0.014,0.037-0.027,0.076-0.041,0.114c-0.038,0.103-0.076,0.207-0.11,0.311c-0.017,0.053-0.033,0.106-0.05,0.159
		c-0.029,0.091-0.057,0.183-0.083,0.275c-0.016,0.059-0.031,0.118-0.046,0.177c-0.023,0.088-0.045,0.177-0.065,0.267
		c-0.015,0.062-0.028,0.124-0.041,0.186c-0.019,0.088-0.037,0.178-0.052,0.267c-0.011,0.063-0.022,0.125-0.032,0.189
		c-0.015,0.09-0.027,0.182-0.039,0.272c-0.009,0.063-0.017,0.126-0.024,0.189c-0.01,0.095-0.018,0.189-0.026,0.285
		c-0.004,0.062-0.01,0.122-0.014,0.183c-0.006,0.104-0.01,0.209-0.013,0.315c-0.002,0.051-0.005,0.104-0.005,0.157
		c-0.002,0.157-0.001,0.315,0.004,0.476c0.007,0.211,0.023,0.418,0.044,0.627c0.005,0.053,0.011,0.108,0.017,0.161
		c0.021,0.185,0.047,0.368,0.079,0.55c0.004,0.022,0.006,0.045,0.011,0.069c0.036,0.199,0.08,0.395,0.127,0.59
		c0.013,0.052,0.027,0.104,0.041,0.157c0.043,0.162,0.089,0.321,0.14,0.48c0.012,0.037,0.022,0.074,0.034,0.111
		c0.062,0.185,0.129,0.366,0.202,0.545c0.021,0.052,0.042,0.103,0.064,0.154c0.06,0.141,0.123,0.281,0.189,0.419
		c0.022,0.046,0.042,0.093,0.066,0.138c0.084,0.168,0.173,0.333,0.267,0.496c0.027,0.049,0.057,0.097,0.086,0.146
		c0.075,0.125,0.152,0.247,0.231,0.367c0.033,0.05,0.065,0.1,0.099,0.149c0.104,0.153,0.212,0.301,0.325,0.446
		c0.019,0.024,0.039,0.049,0.058,0.074c0.027,0.034,0.055,0.066,0.083,0.101c0.077,0.094,0.155,0.188,0.235,0.279
		c0.032,0.036,0.062,0.073,0.093,0.108c0.012,0.013,0.025,0.025,0.037,0.038c0.12,0.131,0.242,0.26,0.368,0.384
		c0.003,0.003,0.006,0.006,0.009,0.009c0.047,0.046,0.095,0.089,0.142,0.132c0.06,0.057,0.118,0.115,0.181,0.17l2.434,2.271
		l0.059,1.72l-0.485,0.017l-0.321,0.348l0.344,0.32l0.014,0.412l-0.321,0.342l0.344,0.325l0.014,0.41l-0.321,0.348l0.344,0.32
		l0.014,0.409l-0.321,0.348l0.344,0.32l0.014,0.412l-0.321,0.346l0.344,0.32l0.015,0.415L18.5,36.891l2.021-0.057v0.003L18.5,36.891
		l2.813,2.141l0.938,0.719c0.006,0.186,0.235,0.156,0.383,0.294l9.53,8.895c8.972-2.687,15.765-10.256,17.419-19.533L31.656,13.906z
		"/>
</g>
<g id="Layer_1">
	<path fill="#FFFFFF" d="M8.99,17.98v18.654c0,0.148,0.119,0.257,0.257,0.257h31.495c0.148,0,0.258-0.119,0.258-0.257V17.98H8.99z"
		/>
	<path fill="#FF7058" d="M41.01,18.06v-3.178c0-0.901-0.732-1.634-1.633-1.634H10.624c-0.901,0-1.633,0.732-1.633,1.634v3.178H41.01
		z"/>
	<path fill="#FFFFFF" d="M27.99,16.822H12.287c-0.644,0-1.158-0.515-1.158-1.158l0,0c0-0.644,0.515-1.159,1.158-1.159H27.99
		c0.644,0,1.158,0.515,1.158,1.159l0,0C29.148,16.297,28.634,16.822,27.99,16.822z"/>
	<g>
		<circle fill="#FFD05B" cx="37.693" cy="15.683" r="1.178"/>
		<circle fill="#FFD05B" cx="34.268" cy="15.683" r="1.178"/>
	</g>
	<g>
		<path fill="#324A5E" d="M12.376,16.089h-0.238l-0.277-0.812h0.238l0.158,0.485l0.159-0.485h0.218l0.158,0.485l0.159-0.485h0.237
			l-0.277,0.812h-0.238l-0.148-0.445L12.376,16.089z"/>
		<path fill="#324A5E" d="M13.732,16.089h-0.237l-0.277-0.812h0.238l0.158,0.485l0.159-0.485h0.218l0.158,0.485l0.159-0.485h0.237
			l-0.277,0.812H14.03l-0.148-0.445L13.732,16.089z"/>
		<path fill="#324A5E" d="M15.089,16.089h-0.237l-0.277-0.812h0.238l0.158,0.485l0.159-0.485h0.218l0.158,0.485l0.159-0.485h0.237
			l-0.277,0.812h-0.237l-0.148-0.445L15.089,16.089z"/>
	</g>
	<polygon fill="#2C9984" points="15.951,32.168 14.931,31.387 21.624,22.703 28.139,29.01 34.316,24.069 35.119,25.079 
		28.06,30.732 21.762,24.634 	"/>
	<g>
		<circle fill="#4CDBC4" cx="34.723" cy="24.574" r="2.396"/>
		<circle fill="#4CDBC4" cx="28.1" cy="29.634" r="2.396"/>
		<circle fill="#4CDBC4" cx="21.693" cy="23.673" r="2.396"/>
		<circle fill="#4CDBC4" cx="15.277" cy="31.772" r="2.396"/>
	</g>
</g>
</svg>
