<?xml version="1.0" encoding="utf-8"?>
<!-- Generator: Adobe Illustrator 16.0.3, SVG Export Plug-In . SVG Version: 6.00 Build 0)  -->
<!DOCTYPE svg PUBLIC "-//W3C//DTD SVG 1.1//EN" "http://www.w3.org/Graphics/SVG/1.1/DTD/svg11.dtd">
<svg version="1.1" id="Layer_1" xmlns="http://www.w3.org/2000/svg" xmlns:xlink="http://www.w3.org/1999/xlink" x="0px" y="0px"
	 width="1080px" height="1080px" viewBox="0 0 1080 1080" enable-background="new 0 0 1080 1080" xml:space="preserve">
<circle fill="#1A6D89" cx="540" cy="540" r="540"/>
<path fill="#183D51" d="M524.321,496.363L631.11,1072.31C885.95,1029,1079.996,807.182,1080,540.006L751.69,211.699L524.321,496.363
	z"/>
<rect x="449.999" y="616.399" fill="#FCD088" width="179.999" height="197.273"/>
<rect x="538.8" y="616.399" fill="#DDAB62" width="91.201" height="197.273"/>
<path fill="#FFEDB5" d="M733.073,433.35c0.968-8.952,1.473-17.777,1.473-26.386c0-113.852-87.103-206.145-194.546-206.145
	S345.454,293.11,345.454,406.964c0,8.606,0.507,17.432,1.473,26.386c-18.868,4.907-27.848,33.934-20.052,65.005
	c7.821,31.168,29.561,52.567,48.554,47.801c1.731-0.433,3.346-1.135,4.906-1.955C415.492,614.763,473.888,672.016,540,672.016
	S664.51,614.769,699.665,544.2c1.561,0.822,3.175,1.522,4.906,1.955c18.993,4.767,40.729-16.633,48.554-47.801
	C760.919,467.283,751.941,438.25,733.073,433.35z"/>
<path fill="#E8CF89" d="M733.073,433.35c0.968-8.952,1.473-17.777,1.473-26.386c0-113.852-87.103-206.145-194.546-206.145
	c-0.407,0-0.804,0.03-1.211,0.034v471.127c0.403,0.004,0.804,0.033,1.211,0.033c66.112,0,124.51-57.246,159.665-127.811
	c1.561,0.822,3.175,1.521,4.906,1.955c18.993,4.768,40.729-16.633,48.554-47.801C760.919,467.283,751.941,438.25,733.073,433.35z"/>
<path fill="#C18E56" d="M418.624,545.145l-51.147-122.611h-14.749c0,0,10.534,60.054,10.534,113.786s55.84,143.901,157.509,143.901
	h38.454c101.67,0,157.51-90.167,157.51-143.901c0-53.73,10.534-113.786,10.534-113.786H712.52l-51.148,122.611l-122.073,13.849
	L418.624,545.145z"/>
<path fill="#B27E4B" d="M712.523,422.535l-51.147,122.611l-122.074,13.849l-0.513-0.06v121.287h20.436
	c101.67,0,157.51-90.167,157.51-143.901s10.538-113.786,10.538-113.786H712.523L712.523,422.535z"/>
<path fill="#6D4711" d="M339.877,382.048c0,0,3.637,51.558,12.729,82.8l16.97-0.783c0,0-4.244-42.181,31.517-85.145
	C436.852,335.956,339.877,382.048,339.877,382.048z"/>
<path fill="#FFFFFF" d="M798.182,297.004c0,65.8-115.881,90.479-258.471,90.479s-257.894-24.68-257.894-90.479
	c0-65.8,115.593-170.729,258.183-170.729S798.182,231.204,798.182,297.004z"/>
<path fill="#E2E2E2" d="M540,126.275c-0.407,0-0.804,0.025-1.211,0.03v261.174c0.311,0,0.614,0.004,0.924,0.004
	c142.59,0,258.469-24.684,258.469-90.479C798.182,231.204,682.594,126.275,540,126.275z"/>
<path fill="#5B370D" d="M740.123,382.048c0,0-3.637,51.558-12.729,82.8l-16.97-0.783c0,0,4.244-42.181-31.517-85.145
	C643.148,335.956,740.123,382.048,740.123,382.048z"/>
<path fill="#2B3344" d="M540,443.309c79.112,0,150.808-20.008,203.149-52.429c4.004-2.48,2.27-8.646-2.44-38.055H339.291
	c-4.708,29.407-6.444,35.575-2.44,38.055C389.196,423.301,460.888,443.309,540,443.309z"/>
<path fill="#121149" d="M740.709,352.825h-201.92v90.464c0.407,0,0.804,0.02,1.211,0.02c79.112,0,150.808-20.008,203.149-52.429
	C747.153,388.399,745.417,382.233,740.709,352.825z"/>
<path fill="#6D4711" d="M577.935,548.978c-25.407-12.334-33.192-6.912-37.935-0.84c-4.742-6.072-12.527-11.494-37.935,0.84
	c-25.981,12.614-60.248-1.924-60.248-1.924s18.299,26.625,63.102,23.303c19.193-1.422,30.979-7.306,35.081-13.281
	c4.103,5.974,15.888,11.859,35.081,13.281c44.808,3.319,63.103-23.303,63.103-23.303S603.92,561.594,577.935,548.978z"/>
<path fill="#5B370D" d="M577.935,548.978c-25.407-12.334-33.192-6.912-37.935-0.84c-0.378-0.482-0.785-0.96-1.211-1.43v11.789
	c0.426-0.473,0.884-0.945,1.211-1.422c4.103,5.974,15.888,11.859,35.081,13.28c44.808,3.325,63.102-23.302,63.102-23.302
	S603.92,561.594,577.935,548.978z"/>
<path fill="#E0E2E2" d="M751.971,768.638l-92.698-25.809l-17.484-24.454c-3.139-4.577-9.068-6.303-14.171-4.119L540,810
	l-87.094-95.709c-5.063-2.206-10.981-0.548-14.16,3.968l-17.531,24.57l-93.334,24.899c-48.269,9.654-84.244,46.098-84.244,95.322
	v128.383C328.721,1047.404,430.545,1080,540,1080s211.279-32.596,296.363-88.566V863.051
	C836.363,813.826,800.24,778.292,751.971,768.638z"/>
<path fill="#C1C1C1" d="M751.971,768.638l-92.698-25.809l-17.484-24.454c-3.139-4.577-9.068-6.303-14.171-4.119L540,810
	l-1.211-1.327v271.306c0.403,0,0.804,0.021,1.211,0.021c109.455,0,211.279-32.596,296.363-88.566V863.051
	C836.363,813.826,800.24,778.292,751.971,768.638z"/>
<path fill="#273B7A" d="M500.604,844.826l22.123,28.428v206.44c5.737,0.181,11.491,0.302,17.273,0.302s11.534-0.125,17.273-0.302
	v-206.44l22.123-28.428L540,808.483L500.604,844.826z"/>
<g>
	<path fill="#2B3344" d="M540,808.483l-1.211,1.116v270.379c0.403,0,0.804,0.021,1.211,0.021c5.782,0,11.534-0.124,17.273-0.302
		v-206.44l22.123-28.428L540,808.483z"/>
	<path fill="#2B3344" d="M310.863,801.803l111.788-26.222c3.43-0.804,5.561-4.235,4.752-7.669l-5.946-25.338
		c-0.804-3.43-4.235-5.561-7.669-4.753l-111.789,26.222c-3.43,0.804-5.56,4.235-4.752,7.67l5.947,25.338
		C304.001,800.48,307.433,802.606,310.863,801.803z"/>
</g>
<g>
	<polygon fill="#FFC61B" points="322.16,759.316 331.294,797.011 344.054,794.018 334.443,756.433 	"/>
	<polygon fill="#FFC61B" points="347.68,753.327 358.003,790.746 370.917,787.717 360.41,750.343 	"/>
</g>
<path fill="#2B3344" d="M769.137,801.803l-111.788-26.222c-3.43-0.804-5.561-4.235-4.752-7.669l5.946-25.338
	c0.804-3.43,4.235-5.561,7.669-4.753l111.789,26.222c3.43,0.804,5.56,4.235,4.752,7.67l-5.946,25.338
	C775.999,800.48,772.567,802.606,769.137,801.803z"/>
<g>
	<polygon fill="#FFC61B" points="757.84,759.316 748.706,797.011 735.946,794.018 745.557,756.433 	"/>
	<polygon fill="#FFC61B" points="732.32,753.327 721.997,790.746 709.083,787.717 719.59,750.343 	"/>
</g>
<path fill="#AFAFAF" d="M540,809.393l-92.756-107.69c-3.948-4.233-11.095-4.225-15.033,0.015l-35.847,40.709l77.338,111.18
	c6.44,9.433,21.345,9.694,28.175,0.491L540,809.393z"/>
<path fill="#8E8E8E" d="M540,809.393l92.756-107.69c3.948-4.233,11.095-4.225,15.033,0.015l35.847,40.705l-77.338,111.179
	c-6.44,9.434-21.345,9.695-28.175,0.491L540,809.393z"/>
<path fill="#494948" d="M740.178,391.905c-132.528-18.814-266.965-18.854-399.499-0.121c-3.079,0.437-5.923-1.698-6.355-4.778
	c-1.979-14.191-3.953-28.381-5.932-42.573c-0.644-4.618,2.575-8.91,7.193-9.554c135.647-18.932,273.181-18.932,408.828,0
	c4.617,0.644,7.837,4.934,7.193,9.554c-2.019,14.477-4.033,28.953-6.052,43.43C745.195,390.466,742.785,392.272,740.178,391.905z"/>
<path fill="#383838" d="M744.415,334.876c-68.222-9.52-136.928-14.245-205.626-14.19v57.088
	c67.287-0.059,134.582,4.643,201.387,14.126c2.606,0.371,5.018-1.437,5.381-4.048c2.019-14.477,4.033-28.954,6.052-43.43
	C752.254,339.812,749.033,335.52,744.415,334.876z"/>
<path fill="#FFC61B" d="M335.589,367.603c-1.411,0.196-2.668,0.768-3.748,1.548c0.829,5.948,1.657,11.901,2.486,17.852
	c0.429,3.08,3.274,5.214,6.355,4.777c132.534-18.735,266.972-18.695,399.499,0.121c2.607,0.371,5.019-1.437,5.381-4.048
	c0.869-6.235,1.738-12.469,2.607-18.706c-1.08-0.785-2.337-1.352-3.748-1.548C608.771,348.673,471.232,348.673,335.589,367.603z"/>
<path fill="#D48B07" d="M744.415,367.603c-68.222-9.52-136.928-14.245-205.626-14.19v24.359
	c67.287-0.06,134.582,4.643,201.387,14.126c2.606,0.372,5.018-1.437,5.381-4.048c0.869-6.235,1.738-12.468,2.607-18.706
	C747.084,368.366,745.828,367.799,744.415,367.603z"/>
<path fill="#494948" d="M575.328,268.589c-6.632,9.589-16.797,15.917-28.055,17.862V265.91h8.41v-14.546h-8.41v-7.731
	c13.287-3.274,23.182-15.259,23.182-29.542c0-16.792-13.662-30.455-30.455-30.455s-30.455,13.663-30.455,30.455
	c0,14.283,9.895,26.266,23.182,29.542v7.731h-8.41v14.546h8.41v20.541c-11.253-1.945-21.423-8.273-28.055-17.862l-11.96,8.273
	c10.754,15.548,28.428,24.833,47.288,24.833c18.859,0,36.534-9.283,47.288-24.833L575.328,268.589z M524.091,214.091
	c0-8.771,7.139-15.909,15.909-15.909s15.909,7.138,15.909,15.909c0,8.771-7.139,15.909-15.909,15.909
	S524.091,222.862,524.091,214.091z"/>
<path fill="#383838" d="M575.328,268.589c-6.632,9.589-16.797,15.917-28.055,17.862V265.91h8.41v-14.546h-8.41v-7.731
	c13.287-3.274,23.182-15.259,23.182-29.542c0-16.792-13.662-30.455-30.455-30.455c-0.407,0-0.808,0.044-1.211,0.062v14.607
	c0.407-0.034,0.798-0.125,1.211-0.125c8.771,0,15.909,7.138,15.909,15.909c0,8.771-7.139,15.909-15.909,15.909
	c-0.416,0-0.804-0.091-1.211-0.125v71.782c0.403,0.006,0.804,0.036,1.211,0.036c18.857,0,36.534-9.283,47.288-24.834
	L575.328,268.589z"/>
</svg>
