<?xml version="1.0" encoding="utf-8"?>
<!-- Generator: Adobe Illustrator 16.0.3, SVG Export Plug-In . SVG Version: 6.00 Build 0)  -->
<!DOCTYPE svg PUBLIC "-//W3C//DTD SVG 1.1//EN" "http://www.w3.org/Graphics/SVG/1.1/DTD/svg11.dtd">
<svg version="1.1" xmlns="http://www.w3.org/2000/svg" xmlns:xlink="http://www.w3.org/1999/xlink" x="0px" y="0px" width="480px"
	 height="480px" viewBox="0 0 480 480" enable-background="new 0 0 480 480" xml:space="preserve">
<g id="bg">
	<g id="Layer_3">
		<path fill="#1A6D89" d="M240,2c132.549,0,240,105.452,240,238c0,137.88-107.453,240-240,240S0,377.88,0,240
			C0,107.452,107.452,2,240,2z"/>
	</g>
</g>
<g id="sh">
	<path fill="#183D51" enable-background="new    " d="M132.303,321.464l152.754,152.23c34.879-4.679,127.983-28.121,172.021-125.624
		c0.237-0.521,15.789-38.811,15.789-54.711L323.811,137.825L132.303,321.464z"/>
</g>
<g id="c1">
	<path fill="#B8D1E6" d="M266.902,339.742c-3.154,3.768-8.807,4.248-12.555,1.104l-109.265-91.672
		c-3.758-3.164-4.247-8.806-1.103-12.554L275.771,79.563c3.153-3.773,8.809-4.252,12.555-1.108l109.265,91.666
		c3.759,3.164,4.247,8.817,1.104,12.576L266.902,339.742z"/>
</g>
<g id="c2">
	<path fill="#E1EFFA" d="M265.779,335.516c-1.676,4.633-6.83,7.017-11.42,5.33l-134.03-48.783c-4.617-1.664-7.006-6.817-5.33-11.43
		l70.122-192.648c1.671-4.606,6.819-7.001,11.425-5.32l134.025,48.782c4.61,1.676,6.995,6.809,5.329,11.42L265.779,335.516z"/>
</g>
<g id="c3">
	<g id="Layer_7">
		<path fill="#FFFFFF" d="M263.26,331.934c0,4.894-4.008,8.912-8.91,8.912H111.725c-4.903,0-8.911-4.02-8.911-8.912V126.918
			c0-4.893,4.008-8.911,8.911-8.911H254.35c4.902,0,8.91,3.998,8.91,8.911V331.934z"/>
		<g>
			<path fill="#FF6262" d="M206.129,212.395c-7.777-10.087-23.1-4.143-23.1,6.131c0-10.273-15.314-16.218-23.101-6.131
				c-8.047,10.441-0.114,28.742,23.101,39.277C206.259,241.137,214.181,222.836,206.129,212.395z"/>
			<path fill="#FF6262" d="M133.258,161.574c-2.654-3.456-7.865-1.426-7.865,2.093c0-3.519-5.226-5.549-7.875-2.093
				c-2.753,3.56-0.047,9.795,7.875,13.377C133.3,171.369,136.012,165.133,133.258,161.574z"/>
		</g>
		<path fill="#5D6D7E" d="M131.66,150.642l-1.639-4.152h-9.255l-1.64,4.152h-2.644l7.49-18.581h2.874l7.458,18.581H131.66z
			 M125.393,134.435l-3.934,10.024h7.891L125.393,134.435z"/>
		<path fill="#FF6262" d="M232.799,297.289c2.654,3.436,7.881,1.395,7.881-2.082c0,3.498,5.217,5.527,7.871,2.082
			c2.747-3.57,0.041-9.805-7.871-13.387C232.758,287.484,230.062,293.719,232.799,297.289z"/>
		<path fill="#5D6D7E" d="M262.413,297.475l1.64,4.143h9.244l1.639-4.143h2.646l-7.495,18.57h-2.861l-7.476-18.57H262.413z
			 M268.68,313.671l3.926-10.004h-7.892L268.68,313.671z"/>
	</g>
	<g id="Layer_6">
	</g>
	<g id="Layer_5">
		<line fill="none" x1="-146.67" y1="541.4" x2="-146.67" y2="498.42"/>
		<line fill="none" x1="-146.67" y1="251.939" x2="-146.67" y2="213.89"/>
	</g>
	<g id="Layer_8">
	</g>
	<g id="Layer_4">
	</g>
	<g id="Layer_1_1_">
	</g>
	<g id="Layer_2">
	</g>
</g>
</svg>
