<?xml version="1.0" encoding="utf-8"?>
<!-- Generator: Adobe Illustrator 16.0.3, SVG Export Plug-In . SVG Version: 6.00 Build 0)  -->
<!DOCTYPE svg PUBLIC "-//W3C//DTD SVG 1.1//EN" "http://www.w3.org/Graphics/SVG/1.1/DTD/svg11.dtd">
<svg version="1.1" xmlns="http://www.w3.org/2000/svg" xmlns:xlink="http://www.w3.org/1999/xlink" x="0px" y="0px" width="1080px"
	 height="1080px" viewBox="0 0 1080 1080" enable-background="new 0 0 1080 1080" xml:space="preserve">
<g id="bg">
	<circle fill="#1A6D89" cx="540" cy="540" r="540"/>
</g>
<g id="sh">
	<path fill="#183D51" d="M1058.721,690.502L853.238,485.02l-7.988,16.375L692.08,348.225L452.123,540.604L239.832,680.128
		l392.048,392.046C836.547,1037.091,1001.852,886.845,1058.721,690.502z"/>
</g>
<g id="cloud">
	<g>
		<path fill="#D9EDEC" d="M735.164,737.68c85.014,0,153.932-68.915,153.932-153.932c0-85.014-68.916-153.932-153.932-153.932
			c-1.182,0-2.346,0.062-3.523,0.091c-16.563-83.124-89.904-145.774-177.894-145.774c-67.783,0-126.841,37.197-157.981,92.266
			c-7.677-0.994-15.486-1.557-23.438-1.557c-100.193,0-181.419,81.221-181.419,181.418c0,100.198,81.221,181.419,181.419,181.419
			L735.164,737.68L735.164,737.68z"/>
		<path fill="#C7D8D7" d="M735.164,429.821c-1.182,0-2.346,0.061-3.523,0.091c-16.563-83.125-89.904-145.775-177.894-145.775
			c-5.037,0-10.021,0.23-14.956,0.633v452.908h196.37c85.015,0,153.932-68.915,153.932-153.932
			C889.091,498.734,820.174,429.821,735.164,429.821z"/>
	</g>
</g>
<g id="arrow">
	<g>
		<polygon fill="#FF6262" points="594.342,565.247 594.342,387.41 485.662,387.41 485.662,565.247 431.323,565.247 540,673.927 
			648.68,565.247 		"/>
		<polygon fill="#FF0F27" points="648.68,565.247 594.342,565.247 594.342,387.41 538.789,387.41 538.789,672.716 540,673.927 		"/>
	</g>
</g>
</svg>
