<?xml version="1.0" encoding="utf-8"?>
<!-- Generator: Adobe Illustrator 16.0.3, SVG Export Plug-In . SVG Version: 6.00 Build 0)  -->
<!DOCTYPE svg PUBLIC "-//W3C//DTD SVG 1.1//EN" "http://www.w3.org/Graphics/SVG/1.1/DTD/svg11.dtd">
<svg version="1.1" id="Layer_1" xmlns="http://www.w3.org/2000/svg" xmlns:xlink="http://www.w3.org/1999/xlink" x="0px" y="0px"
	 width="50px" height="50px" viewBox="0 0 50 50" enable-background="new 0 0 50 50" xml:space="preserve">
<circle fill="#1A6D89" cx="25" cy="25" r="25"/>
<path fill="#183D51" d="M32.282,13.104l-0.85-0.847C29.722,10.739,27.469,9.821,25,9.821c-0.551,0-1.091,0.049-1.617,0.137
	l-0.001-0.001c-0.024,0.004-0.049,0.01-0.074,0.015c-0.115,0.02-0.23,0.042-0.344,0.065c-0.022,0.005-0.044,0.01-0.066,0.015
	c-0.375,0.083-0.742,0.187-1.099,0.312c-0.031,0.01-0.062,0.02-0.092,0.031c-0.087,0.032-0.174,0.066-0.26,0.1
	c-0.054,0.021-0.108,0.042-0.162,0.064c-0.078,0.032-0.155,0.067-0.232,0.101c-0.061,0.027-0.121,0.054-0.181,0.082
	c-0.072,0.034-0.144,0.069-0.215,0.105c-0.063,0.032-0.125,0.063-0.188,0.096c-0.068,0.037-0.136,0.073-0.203,0.11
	c-0.064,0.036-0.127,0.073-0.19,0.109c-0.064,0.038-0.128,0.076-0.191,0.115c-0.065,0.041-0.13,0.083-0.193,0.125
	c-0.059,0.039-0.119,0.077-0.177,0.117c-0.068,0.047-0.135,0.095-0.202,0.144c-0.052,0.038-0.106,0.075-0.158,0.114
	c-0.078,0.059-0.154,0.12-0.229,0.18c-0.04,0.031-0.08,0.062-0.119,0.094c-0.112,0.093-0.222,0.188-0.331,0.287
	c-0.032,0.028-0.063,0.059-0.094,0.089c-0.077,0.071-0.153,0.143-0.228,0.217c-0.04,0.04-0.079,0.081-0.118,0.122
	c-0.064,0.066-0.128,0.132-0.191,0.2c-0.041,0.044-0.08,0.089-0.12,0.134c-0.058,0.066-0.117,0.133-0.174,0.201
	c-0.039,0.047-0.079,0.095-0.117,0.143c-0.055,0.068-0.11,0.137-0.163,0.207c-0.037,0.049-0.074,0.099-0.111,0.148
	c-0.052,0.071-0.104,0.144-0.154,0.217c-0.034,0.05-0.068,0.099-0.102,0.149c-0.051,0.076-0.1,0.154-0.149,0.232
	c-0.03,0.048-0.061,0.096-0.09,0.145c-0.051,0.086-0.101,0.174-0.15,0.261c-0.023,0.042-0.049,0.084-0.072,0.128
	c-0.063,0.117-0.124,0.235-0.182,0.355c-0.007,0.015-0.015,0.028-0.022,0.043c-0.065,0.136-0.127,0.274-0.187,0.413
	c-0.016,0.037-0.029,0.075-0.045,0.112c-0.042,0.102-0.083,0.204-0.121,0.307c-0.019,0.052-0.037,0.104-0.055,0.157
	c-0.032,0.09-0.063,0.181-0.092,0.272c-0.019,0.058-0.035,0.117-0.053,0.175c-0.026,0.087-0.051,0.175-0.075,0.264
	c-0.017,0.061-0.032,0.123-0.047,0.184c-0.022,0.088-0.042,0.176-0.062,0.265c-0.013,0.063-0.026,0.125-0.039,0.188
	c-0.018,0.09-0.034,0.18-0.048,0.271c-0.011,0.063-0.021,0.125-0.03,0.188c-0.014,0.094-0.025,0.188-0.036,0.283
	c-0.006,0.061-0.015,0.122-0.021,0.183c-0.01,0.104-0.017,0.209-0.024,0.314c-0.003,0.052-0.008,0.104-0.011,0.156
	c-0.008,0.158-0.012,0.316-0.012,0.476c0,0.211,0.009,0.419,0.022,0.627c0.003,0.054,0.007,0.109,0.012,0.163
	c0.015,0.185,0.034,0.369,0.06,0.551c0.003,0.023,0.005,0.046,0.008,0.069c0.029,0.201,0.066,0.398,0.107,0.594
	c0.011,0.053,0.023,0.106,0.036,0.159c0.037,0.163,0.078,0.324,0.124,0.484c0.011,0.037,0.02,0.075,0.03,0.112
	c0.056,0.187,0.117,0.37,0.183,0.552c0.019,0.052,0.039,0.104,0.059,0.156c0.055,0.143,0.113,0.285,0.174,0.426
	c0.021,0.046,0.04,0.093,0.061,0.14c0.078,0.171,0.162,0.339,0.25,0.505c0.026,0.049,0.054,0.098,0.081,0.147
	c0.07,0.127,0.143,0.252,0.218,0.376c0.031,0.051,0.062,0.102,0.094,0.152c0.099,0.155,0.202,0.308,0.309,0.457
	c0.018,0.025,0.037,0.051,0.055,0.076c0.026,0.035,0.053,0.068,0.079,0.103c0.074,0.097,0.149,0.194,0.226,0.288
	c0.031,0.037,0.059,0.075,0.09,0.111c0.011,0.014,0.024,0.026,0.035,0.04c0.115,0.135,0.232,0.268,0.354,0.396
	c0.003,0.004,0.006,0.007,0.009,0.01c0.045,0.047,0.091,0.092,0.137,0.137c0.058,0.059,0.114,0.119,0.175,0.176l2.354,2.354v1.721
	H20.14l-0.333,0.336l0.333,0.332v0.412l-0.333,0.331l0.333,0.337v0.41l-0.333,0.336l0.333,0.332v0.41l-0.333,0.336l0.333,0.332
	v0.412l-0.333,0.335l0.333,0.332v0.415l-0.333,0.332l0.333,0.332v0.003h0.003l1.782,1.782v0.982c0,0.186,0.071,0.371,0.214,0.514
	l9.218,9.219c9.059-2.376,16.109-9.706,18.083-18.921L32.282,13.104z"/>
<circle fill="#E1EFFA" cx="25" cy="19.54" r="9.718"/>
<rect x="20.625" y="28.192" fill="#CEE2F2" width="8.747" height="2.43"/>
<path fill="#E1EFFA" d="M21.924,36.685v2.766c0,0.187,0.071,0.372,0.213,0.515s0.329,0.214,0.515,0.214s0.373-0.071,0.515-0.214
	s0.213-0.328,0.213-0.515v-2.766H21.924z"/>
<path fill="#F9FDFF" d="M22.653,39.742c-0.078,0-0.151-0.031-0.207-0.086c-0.054-0.055-0.085-0.128-0.085-0.206v-2.766H22.07v2.766
	c0,0.155,0.061,0.302,0.171,0.411c0.11,0.109,0.256,0.172,0.412,0.172c0.08,0,0.145-0.066,0.145-0.146S22.733,39.742,22.653,39.742z
	"/>
<path fill="#E1EFFA" d="M26.619,36.685v2.766c0,0.187,0.071,0.372,0.214,0.515c0.142,0.143,0.328,0.214,0.515,0.214
	c0.186,0,0.372-0.071,0.514-0.214c0.143-0.143,0.214-0.328,0.214-0.515v-2.766H26.619z"/>
<path fill="#F9FDFF" d="M27.348,39.742c-0.078,0-0.151-0.031-0.206-0.086s-0.085-0.128-0.085-0.206v-2.766h-0.291v2.766
	c0,0.155,0.061,0.302,0.17,0.411c0.11,0.109,0.257,0.172,0.412,0.172c0.08,0,0.145-0.066,0.145-0.146S27.428,39.742,27.348,39.742z"
	/>
<rect x="20.14" y="30.62" fill="#34495E" width="9.717" height="6.063"/>
<polygon fill="#5D6D7E" points="29.859,30.621 20.141,30.621 20.141,30.621 20.141,30.621 19.807,30.955 30.193,30.955 "/>
<polygon fill="#283A4D" points="29.859,31.289 20.141,31.289 20.141,31.289 20.141,31.289 19.807,30.955 30.193,30.955 "/>
<polygon fill="#5D6D7E" points="29.859,31.701 20.141,31.701 20.141,31.701 20.141,31.701 19.807,32.034 30.193,32.034 "/>
<polygon fill="#283A4D" points="29.859,32.367 20.141,32.367 20.141,32.367 20.141,32.367 19.807,32.034 30.193,32.034 "/>
<polygon fill="#5D6D7E" points="29.859,32.779 20.141,32.779 20.141,32.779 20.141,32.779 19.807,33.113 30.193,33.113 "/>
<polygon fill="#283A4D" points="29.859,33.447 20.141,33.447 20.141,33.447 20.141,33.447 19.807,33.113 30.193,33.113 "/>
<polygon fill="#5D6D7E" points="29.859,33.858 20.141,33.858 20.141,33.858 20.141,33.858 19.807,34.191 30.193,34.191 "/>
<polygon fill="#283A4D" points="29.859,34.525 20.141,34.525 20.141,34.525 20.141,34.525 19.807,34.191 30.193,34.191 "/>
<polygon fill="#5D6D7E" points="29.859,34.938 20.141,34.938 20.141,34.938 20.141,34.938 19.807,35.271 30.193,35.271 "/>
<polygon fill="#283A4D" points="29.859,35.605 20.141,35.605 20.141,35.605 20.141,35.605 19.807,35.271 30.193,35.271 "/>
<polygon fill="#5D6D7E" points="29.859,36.016 20.141,36.016 20.141,36.016 20.141,36.016 19.807,36.35 30.193,36.35 "/>
<polygon fill="#283A4D" points="29.859,36.685 20.141,36.685 20.141,36.685 20.141,36.685 19.807,36.35 30.193,36.35 "/>
<g>
	<path fill="#F9FDFF" d="M22.646,13.063c0.797,0.797,0.521,2.366-0.618,3.504c-1.139,1.139-2.708,1.417-3.505,0.619
		c-0.797-0.797-0.52-2.366,0.619-3.505C20.28,12.542,21.849,12.267,22.646,13.063z"/>
	<path fill="#F9FDFF" d="M31.064,23.2c0.465,0.465,0.304,1.38-0.36,2.044c-0.664,0.665-1.58,0.825-2.045,0.361
		c-0.465-0.466-0.304-1.38,0.36-2.044S30.6,22.734,31.064,23.2z"/>
</g>
<g>
	<rect x="24.855" y="22.063" fill="#34495E" width="0.288" height="8.561"/>
	<polygon fill="#34495E" points="25,22.265 22.488,19.753 22.692,19.55 25,21.859 27.309,19.55 27.512,19.753 	"/>
</g>
</svg>
