<?xml version="1.0" encoding="utf-8"?>
<!-- Generator: Adobe Illustrator 16.0.3, SVG Export Plug-In . SVG Version: 6.00 Build 0)  -->
<!DOCTYPE svg PUBLIC "-//W3C//DTD SVG 1.1//EN" "http://www.w3.org/Graphics/SVG/1.1/DTD/svg11.dtd">
<svg version="1.1" xmlns="http://www.w3.org/2000/svg" xmlns:xlink="http://www.w3.org/1999/xlink" x="0px" y="0px" width="480px"
	 height="480px" viewBox="0 0 480 480" enable-background="new 0 0 480 480" xml:space="preserve">
<g id="Layer_3">
	<path fill="#1A6D89" d="M240,2c132.549,0,240,105.452,240,238c0,137.88-107.453,240-240,240S0,377.88,0,240
		C0,107.452,107.452,2,240,2z"/>
</g>
<g id="Layer_4">
	<path opacity="0.5" fill="#183D51" d="M191.994,370.861l84.083,106.469c91.067-12.163,180.843-83.245,200.09-197.1
		c0.106-0.63-160.818-152.315-160.818-152.315s-15.501,46.072-11.749,54.915c9.52,22.437,30.481,11.336,18.254,124.337
		c-2.162,19.979-77.505,38.593-77.505,38.593L191.994,370.861z"/>
</g>
<g id="Layer_1">
	<path fill="#2B2C28" d="M240,102.38c-76.56,0-138.62,62.06-138.62,138.62c0,76.56,62.06,138.62,138.62,138.62
		c76.56,0,138.62-62.061,138.62-138.62C378.53,164.48,316.52,102.47,240,102.38z M350.89,174.41l-27.35,27.34
		c-8.17-17.33-21.51-31.71-38.17-41.17l26.86-26.87C327.92,144.31,341.11,158.2,350.89,174.41z M323.17,241
		c0,45.93-37.24,83.17-83.17,83.17c-45.93,0-83.17-37.24-83.17-83.17c0-45.93,37.24-83.17,83.17-83.17
		C285.91,157.88,323.12,195.09,323.17,241z M240,111.62c22.51-0.02,44.64,5.88,64.16,17.1l-27.49,27.49
		c-23.39-10.17-49.95-10.17-73.34,0l-13.89-13.89c12.98-6.66,27.15-10.69,41.69-11.86c2.91-0.24,5.89-0.35,8.87-0.35v-9.24
		c-3.23,0-6.47,0.12-9.61,0.37c-16.75,1.36-33.03,6.2-47.79,14.24l-6.76-6.76C195.36,117.5,217.49,111.6,240,111.62z M167.77,133.71
		l26.87,26.89c-16.67,9.46-30.01,23.84-38.18,41.17l-27.35-27.36C138.89,158.2,152.08,144.31,167.77,133.71z M110.62,241
		c-0.01-20.2,4.74-40.13,13.87-58.15l6.91,6.9c-6.23,13.09-10,27.2-11.16,41.64l9.22,0.73c0.99-12.2,4.01-24.15,8.95-35.35
		l14.26,14.26c-6.78,19.41-6.78,40.53,0,59.94l-28.18,28.181C115.36,281.13,110.61,261.2,110.62,241z M129.11,307.59l27.34-27.34
		c8.17,17.33,21.5,31.71,38.17,41.17l-26.87,26.87C152.07,337.69,138.88,323.8,129.11,307.59z M240,370.38
		c-22.51,0.021-44.64-5.88-64.16-17.1l27.49-27.49c23.39,10.17,49.95,10.17,73.34,0l13.91,13.91
		c-15.65,8.02-32.99,12.2-50.58,12.189v9.24c20.05,0,39.78-5.03,57.38-14.63l6.78,6.78C284.64,364.5,262.51,370.4,240,370.38z
		 M312.23,348.29l-26.86-26.89c16.66-9.46,30-23.841,38.17-41.17l13.86,13.84l-0.07,0.14l0.46,0.25l13.1,13.13
		C341.11,323.8,327.92,337.69,312.23,348.29z M348.65,292.29c7.56-16.04,11.479-33.56,11.479-51.29h-9.24
		c-0.01,15.24-3.159,30.31-9.239,44.28l-14.32-14.32c6.78-19.41,6.78-40.54,0-59.94l28.18-28.19c9.13,18.03,13.88,37.96,13.87,58.17
		c0.01,20.2-4.74,40.13-13.87,58.15L348.65,292.29z"/>
	<path fill="#FF0F27" d="M152.67,270.97l-28.18,28.181c-9.13-18.021-13.88-37.95-13.87-58.15c-0.01-20.2,4.74-40.13,13.87-58.15
		l6.91,6.9c-6.23,13.09-10,27.2-11.16,41.64l9.22,0.73c0.99-12.2,4.01-24.15,8.95-35.35l14.26,14.26
		C145.89,230.44,145.89,251.56,152.67,270.97z"/>
	<path fill="#D9EDEC" d="M194.62,321.42l-26.87,26.87c-15.68-10.6-28.87-24.49-38.64-40.7l27.34-27.34
		C164.62,297.58,177.95,311.96,194.62,321.42z"/>
	<path fill="#FF0F27" d="M297.38,346.5c-17.6,9.6-37.33,14.63-57.38,14.63v-9.24c17.59,0.011,34.93-4.17,50.58-12.189l-13.91-13.91
		c-23.39,10.17-49.95,10.17-73.34,0l-27.49,27.49c19.52,11.22,41.65,17.12,64.16,17.1c22.51,0.021,44.64-5.88,64.16-17.1
		L297.38,346.5z M236.49,360.77h-9.24v-9.239h9.24V360.77z"/>
	<path fill="#D9EDEC" d="M350.89,307.59c-9.779,16.21-22.97,30.101-38.659,40.7l-26.86-26.89c16.66-9.46,30-23.841,38.17-41.17
		l13.86,13.84l-0.07,0.14l0.46,0.25L350.89,307.59z"/>
	<path fill="#FF0F27" d="M369.38,241c0.01,20.2-4.74,40.13-13.87,58.15l-6.859-6.86c7.56-16.04,11.479-33.56,11.479-51.29h-9.24
		c-0.01,15.24-3.159,30.31-9.239,44.28l-14.32-14.32c6.78-19.41,6.78-40.54,0-59.94l28.18-28.19
		C364.64,200.86,369.39,220.79,369.38,241z"/>
	<path fill="#D9EDEC" d="M350.89,174.41l-27.35,27.34c-8.17-17.33-21.51-31.71-38.17-41.17l26.86-26.87
		C327.92,144.31,341.11,158.2,350.89,174.41z"/>
	<path fill="#FF0F27" d="M240,111.62c-22.51-0.02-44.64,5.88-64.16,17.1l6.76,6.76c14.76-8.04,31.04-12.88,47.79-14.24
		c3.14-0.25,6.38-0.37,9.61-0.37v9.24c-2.98,0-5.96,0.11-8.87,0.35c-14.54,1.17-28.71,5.2-41.69,11.86l13.89,13.89
		c23.39-10.17,49.95-10.17,73.34,0l27.49-27.49C284.64,117.5,262.51,111.6,240,111.62z M254.98,130.24h-9.25V121h9.25V130.24z"/>
	<path fill="#D9EDEC" d="M194.64,160.6c-16.67,9.46-30.01,23.84-38.18,41.17l-27.35-27.36c9.78-16.21,22.97-30.1,38.66-40.7
		L194.64,160.6z"/>
	<rect x="245.73" y="121" fill="#2B2C28" width="9.25" height="9.24"/>
	<rect x="227.25" y="351.53" fill="#2B2C28" width="9.24" height="9.239"/>
</g>
</svg>
