<?xml version="1.0" encoding="utf-8"?>
<!-- Generator: Adobe Illustrator 16.0.3, SVG Export Plug-In . SVG Version: 6.00 Build 0)  -->
<!DOCTYPE svg PUBLIC "-//W3C//DTD SVG 1.1//EN" "http://www.w3.org/Graphics/SVG/1.1/DTD/svg11.dtd">
<svg version="1.1" xmlns="http://www.w3.org/2000/svg" xmlns:xlink="http://www.w3.org/1999/xlink" x="0px" y="0px" width="1080px"
	 height="1080px" viewBox="0 0 1080 1080" enable-background="new 0 0 1080 1080" xml:space="preserve">
<g id="bg">
	<circle fill="#1A6D89" cx="540" cy="540" r="540"/>
</g>
<g id="sh">
	<path fill="#183D51" d="M1075.528,609.729L758.731,292.931L480.61,519.396L321.68,787.436l288.088,288.094
		C852.215,1044.248,1044.27,852.182,1075.528,609.729z"/>
</g>
<g id="c1">
	<circle fill="#E8CF89" cx="540" cy="540" r="329.999"/>
</g>
<g id="c2">
	<path fill="#71B48D" d="M543.029,209.51c-1.012,0-2.02,0.029-3.029,0.036v659.926c1.011,0.008,2.015,0.036,3.029,0.036
		c182.254,0,329.999-147.745,329.999-329.999C873.028,357.254,725.283,209.51,543.029,209.51z"/>
</g>
<g id="c3">
	<path fill="#F1543F" d="M210.001,540c0-182.254,147.745-329.999,329.999-329.999V540H210.001z"/>
</g>
<g id="c4">
	<path fill="#F9B54C" d="M540,210.001v329.948l243.226-222.957C722.902,251.233,636.27,210.001,540,210.001z"/>
</g>
</svg>
