<?xml version="1.0" encoding="utf-8"?>
<!-- Generator: Adobe Illustrator 16.0.3, SVG Export Plug-In . SVG Version: 6.00 Build 0)  -->
<!DOCTYPE svg PUBLIC "-//W3C//DTD SVG 1.1//EN" "http://www.w3.org/Graphics/SVG/1.1/DTD/svg11.dtd">
<svg version="1.1" id="Layer_1" xmlns="http://www.w3.org/2000/svg" xmlns:xlink="http://www.w3.org/1999/xlink" x="0px" y="0px"
	 width="1080px" height="1080px" viewBox="0 0 1080 1080" enable-background="new 0 0 1080 1080" xml:space="preserve">
<circle fill="#1A6D89" cx="540" cy="540" r="540"/>
<path fill="#183D51" d="M676.864,1062.483c179.909-46.999,323.252-184.443,378.518-360.854L754.227,400.474l-9.077,12.624
	L611.48,279.429L360.608,596.97l-101.16,29.651l132.066,132.066l-12.835,5.606L676.864,1062.483z"/>
<path fill="#FF6262" d="M700.836,512.755c15.942-0.677,30.693,4.249,42.48,12.96c8.75,6.47,21.168-0.217,21.168-11.102v-82.924
	c0-29.075-23.57-52.649-52.65-52.649h-77.741c-10.232,0-16.879-11.018-11.846-19.927c6.57-11.625,9.756-25.408,8.196-40.044
	c-3.279-30.763-28.084-55.698-58.837-59.088c-40.31-4.447-74.425,26.996-74.425,66.407c0,11.905,3.128,23.072,8.596,32.742
	c5.033,8.902-1.622,19.909-11.846,19.909h-77.75c-29.075,0-52.65,23.57-52.65,52.649v80.19c0,10.701-11.81,17.073-20.825,11.298
	c-11.513-7.375-25.429-11.309-40.338-10.338c-33.48,2.181-60.687,29.894-62.288,63.407c-1.833,38.397,28.757,70.099,66.75,70.099
	c13.342,0,25.753-3.923,36.167-10.673c8.847-5.731,20.534,0.96,20.534,11.502v80.171c0,29.076,23.57,52.65,52.65,52.65H711.84
	c29.076,0,52.65-23.57,52.65-52.65v-82.938c0-10.926-12.447-17.512-21.244-11.029c-11.057,8.148-24.713,12.966-39.504,12.966
	c-38.018,0-68.622-31.748-66.745-70.181C638.655,542.088,666.746,514.2,700.836,512.755z"/>
<path fill="#FF0F27" d="M700.836,512.755c15.942-0.677,30.693,4.249,42.48,12.96c8.75,6.47,21.168-0.217,21.168-11.102v-82.924
	c0-29.075-23.57-52.649-52.65-52.649h-77.741c-10.232,0-16.879-11.018-11.846-19.923c6.57-11.625,9.756-25.407,8.196-40.044
	c-3.279-30.763-28.084-55.698-58.837-59.087c-4.355-0.481-8.636-0.521-12.814-0.196V780H711.84c29.076,0,52.65-23.569,52.65-52.649
	v-82.938c0-10.927-12.447-17.512-21.244-11.03c-11.057,8.148-24.713,12.967-39.504,12.967c-38.018,0-68.622-31.748-66.745-70.182
	C638.655,542.088,666.746,514.2,700.836,512.755z"/>
</svg>
