<?xml version="1.0" encoding="utf-8"?>
<!-- Generator: Adobe Illustrator 16.0.3, SVG Export Plug-In . SVG Version: 6.00 Build 0)  -->
<!DOCTYPE svg PUBLIC "-//W3C//DTD SVG 1.1//EN" "http://www.w3.org/Graphics/SVG/1.1/DTD/svg11.dtd">
<svg version="1.1" id="Layer_1" xmlns="http://www.w3.org/2000/svg" xmlns:xlink="http://www.w3.org/1999/xlink" x="0px" y="0px"
	 width="1080px" height="1080px" viewBox="0 0 1080 1080" enable-background="new 0 0 1080 1080" xml:space="preserve">
<circle fill="#1A6D89" cx="540" cy="540" r="540"/>
<path fill="#183D51" d="M1063.807,671.644L638.186,246.019l-31.171,36.855L500.633,176.491L303.636,364.245l-63.244,64.437
	l113.124,113.124L314.2,570.002l198.905,200.28l79.68,78.307l-26.091,24.992l169.606,169.606
	C897.579,980.229,1021.134,841.979,1063.807,671.644z"/>
<path fill="#FC6F58" d="M669.476,354.339H647c-4.537-21.684-12.835-41.979-24.163-60.199l15.346-15.346
	c9.052-9.051,9.052-23.724,0-32.775l-25.266-25.266c-9.052-9.051-23.725-9.051-32.775,0l-14.81,14.81
	c-18.299-11.859-38.785-20.606-60.735-25.513V189.46c0-12.8-10.374-23.174-23.174-23.174h-35.733
	c-12.799,0-23.173,10.374-23.173,23.174v20.589c-21.95,4.907-42.437,13.652-60.735,25.513l-14.811-14.81
	c-9.051-9.051-23.724-9.051-32.775,0l-25.266,25.266c-9.052,9.051-9.052,23.724,0,32.775l15.346,15.346
	c-11.328,18.221-19.626,38.517-24.163,60.199h-22.473c-12.8,0-23.174,10.374-23.174,23.174v35.73
	c0,12.8,10.374,23.174,23.174,23.174h23.604c4.997,21.026,13.531,40.669,24.945,58.284L288.93,511.96
	c-9.052,9.052-9.052,23.725,0,32.775l25.266,25.267c9.052,9.051,23.725,9.051,32.775,0l17.797-17.797
	c17.531,10.895,36.99,18.957,57.749,23.596v25.491c0,12.8,10.374,23.174,23.173,23.174h35.731c12.799,0,23.173-10.374,23.173-23.174
	v-25.491c20.761-4.642,40.218-12.703,57.749-23.596l17.797,17.797c9.051,9.051,23.724,9.051,32.775,0l25.266-25.267
	c9.052-9.051,9.052-23.724,0-32.775l-17.259-17.259c11.418-17.615,19.948-37.258,24.945-58.284h23.608
	c12.8,0,23.174-10.374,23.174-23.174v-35.73C692.651,364.713,682.277,354.339,669.476,354.339z M463.561,471.945
	c-43.641,0-79.018-35.379-79.018-79.017c0-43.639,35.379-79.017,79.018-79.017c43.641,0,79.018,35.378,79.018,79.017
	C542.578,436.566,507.199,471.945,463.561,471.945z"/>
<path fill="#F1543F" d="M669.476,354.339H647c-4.537-21.684-12.835-41.979-24.163-60.199l15.346-15.346
	c9.052-9.051,9.052-23.724,0-32.775l-25.266-25.266c-9.052-9.051-23.725-9.051-32.775,0l-14.81,14.81
	c-18.299-11.859-38.785-20.606-60.735-25.513V189.46c0-12.8-10.374-23.174-23.174-23.174h-18.999v147.65
	c0.377-0.004,0.753-0.029,1.135-0.029c43.641,0,79.017,35.378,79.017,79.017c0,43.641-35.378,79.018-79.017,79.018
	c-0.382,0-0.758-0.021-1.135-0.03v152.553h18.999c12.8,0,23.174-10.378,23.174-23.174v-25.492
	c20.76-4.641,40.217-12.702,57.748-23.595L580.142,570c9.052,9.051,23.725,9.051,32.775,0l25.267-25.267
	c9.051-9.052,9.051-23.724,0-32.775l-17.26-17.259c11.418-17.615,19.949-37.258,24.946-58.284h23.607
	c12.8,0,23.174-10.374,23.174-23.174v-35.73C692.651,364.713,682.277,354.339,669.476,354.339z"/>
<path fill="#E6F3FF" d="M828.455,714.688h-16.561c-3.346-15.979-9.459-30.928-17.804-44.352l11.307-11.306
	c6.67-6.67,6.67-17.48,0-24.146l-18.615-18.615c-6.67-6.67-17.48-6.67-24.146,0l-10.911,10.912
	c-13.483-8.739-28.574-15.182-44.749-18.797v-15.171c0-9.429-7.644-17.075-17.075-17.075h-26.327
	c-9.429,0-17.075,7.645-17.075,17.075v15.171c-16.17,3.615-31.266,10.058-44.748,18.797l-10.912-10.912
	c-6.67-6.67-17.48-6.67-24.148,0l-18.615,18.615c-6.67,6.67-6.67,17.48,0,24.146l11.307,11.306
	c-8.345,13.427-14.458,28.378-17.803,44.352h-16.562c-9.429,0-17.075,7.645-17.075,17.076v26.327
	c0,9.429,7.645,17.075,17.075,17.075h17.393c3.683,15.491,9.967,29.963,18.379,42.942l-12.716,12.716
	c-6.67,6.669-6.67,17.479,0,24.146l18.615,18.615c6.67,6.67,17.48,6.67,24.148,0l13.111-13.112
	c12.916,8.028,27.252,13.969,42.549,17.386v18.782c0,9.429,7.645,17.075,17.075,17.075h26.327c9.429,0,17.075-7.645,17.075-17.075
	v-18.782c15.295-3.417,29.633-9.359,42.548-17.386l13.112,13.112c6.67,6.67,17.48,6.67,24.146,0l18.615-18.615
	c6.669-6.67,6.669-17.48,0-24.146l-12.716-12.716c8.41-12.979,14.698-27.451,18.379-42.942h17.393
	c9.429,0,17.075-7.645,17.075-17.075v-26.327C845.53,722.33,837.888,714.688,828.455,714.688z M676.742,801.339
	c-32.153,0-58.219-26.065-58.219-58.219s26.065-58.219,58.219-58.219s58.219,26.065,58.219,58.219S708.896,801.339,676.742,801.339z
	"/>
<path fill="#CFDBE6" d="M828.455,714.688h-16.561c-3.346-15.979-9.459-30.928-17.804-44.352l11.307-11.306
	c6.67-6.666,6.67-17.48,0-24.146l-18.615-18.615c-6.67-6.67-17.48-6.67-24.148,0l-10.912,10.912
	c-13.48-8.739-28.573-15.182-44.748-18.797v-15.171c0-9.429-7.645-17.073-17.073-17.073h-14.753v108.844
	c0.534-0.015,1.051-0.08,1.589-0.08c32.152,0,58.219,26.065,58.219,58.219s-26.066,58.219-58.219,58.219
	c-0.538,0-1.055-0.065-1.589-0.08v112.455H689.9c9.429,0,17.073-7.645,17.073-17.075v-18.782
	c15.295-3.417,29.633-9.356,42.548-17.385l13.112,13.111c6.67,6.666,17.48,6.666,24.148,0l18.615-18.615
	c6.67-6.67,6.67-17.48,0-24.147l-12.716-12.716c8.41-12.979,14.698-27.451,18.379-42.942h17.393c9.429,0,17.073-7.645,17.073-17.075
	v-26.327C845.53,722.33,837.888,714.688,828.455,714.688z"/>
</svg>
