<?xml version="1.0" encoding="utf-8"?>
<!-- Generator: Adobe Illustrator 16.0.3, SVG Export Plug-In . SVG Version: 6.00 Build 0)  -->
<!DOCTYPE svg PUBLIC "-//W3C//DTD SVG 1.1//EN" "http://www.w3.org/Graphics/SVG/1.1/DTD/svg11.dtd">
<svg version="1.1" xmlns="http://www.w3.org/2000/svg" xmlns:xlink="http://www.w3.org/1999/xlink" x="0px" y="0px" width="1080px"
	 height="1080px" viewBox="0 0 1080 1080" enable-background="new 0 0 1080 1080" xml:space="preserve">
<g id="bg">
	<circle fill="#1A6D89" cx="540" cy="540" r="540"/>
</g>
<g id="shadow">
	<path fill="#183D51" d="M1063.807,671.644L638.186,246.019l-31.171,36.855L500.633,176.491L303.636,364.245l-63.244,64.437
		l113.124,113.124L314.2,570.002l198.905,200.28l79.68,78.307l-26.091,24.992L736.3,1043.188
		C897.579,980.229,1021.134,841.979,1063.807,671.644z"/>
</g>
<g id="cog1">
	<g>
		<path fill="#E6F3FF" d="M828.455,714.688h-16.561c-3.347-15.979-9.459-30.928-17.805-44.352l11.307-11.306
			c6.671-6.67,6.671-17.48,0-24.146l-18.614-18.614c-6.67-6.671-17.48-6.671-24.146,0l-10.911,10.911
			c-13.482-8.738-28.573-15.182-44.749-18.797v-15.171c0-9.429-7.644-17.075-17.074-17.075h-26.327
			c-9.43,0-17.075,7.646-17.075,17.075v15.171c-16.17,3.615-31.266,10.059-44.748,18.797l-10.912-10.911
			c-6.67-6.671-17.479-6.671-24.147,0l-18.615,18.614c-6.67,6.67-6.67,17.48,0,24.146l11.307,11.306
			c-8.345,13.427-14.458,28.378-17.803,44.353h-16.563c-9.429,0-17.074,7.645-17.074,17.075v26.327
			c0,9.43,7.645,17.075,17.074,17.075h17.394c3.683,15.491,9.967,29.963,18.379,42.942l-12.716,12.716
			c-6.67,6.669-6.67,17.479,0,24.146l18.615,18.615c6.67,6.67,17.479,6.67,24.147,0l13.111-13.112
			c12.916,8.028,27.252,13.97,42.549,17.387v18.781c0,9.43,7.646,17.075,17.075,17.075h26.327c9.429,0,17.075-7.645,17.075-17.075
			v-18.781c15.295-3.417,29.633-9.359,42.548-17.387l13.111,13.112c6.67,6.67,17.48,6.67,24.146,0l18.614-18.615
			c6.67-6.67,6.67-17.479,0-24.146l-12.716-12.716c8.41-12.979,14.698-27.451,18.38-42.942h17.393
			c9.429,0,17.075-7.645,17.075-17.075v-26.327C845.53,722.33,837.888,714.688,828.455,714.688z M676.742,801.339
			c-32.153,0-58.219-26.064-58.219-58.219s26.064-58.219,58.219-58.219s58.219,26.064,58.219,58.219
			S708.896,801.339,676.742,801.339z"/>
		<path fill="#CFDBE6" d="M828.455,714.688h-16.561c-3.347-15.979-9.459-30.928-17.805-44.352l11.307-11.306
			c6.671-6.666,6.671-17.48,0-24.146l-18.614-18.614c-6.67-6.671-17.48-6.671-24.148,0l-10.912,10.911
			c-13.479-8.738-28.572-15.182-44.748-18.797v-15.171c0-9.429-7.645-17.073-17.072-17.073h-14.753v108.845
			c0.533-0.016,1.051-0.08,1.589-0.08c32.151,0,58.219,26.064,58.219,58.219s-26.066,58.219-58.219,58.219
			c-0.538,0-1.056-0.064-1.589-0.08v112.455H689.9c9.429,0,17.072-7.645,17.072-17.075V877.86
			c15.295-3.417,29.634-9.356,42.549-17.386l13.111,13.111c6.67,6.666,17.48,6.666,24.148,0l18.615-18.615
			c6.67-6.67,6.67-17.479,0-24.146l-12.717-12.716c8.41-12.979,14.698-27.451,18.379-42.942h17.394
			c9.429,0,17.073-7.645,17.073-17.075v-26.327C845.53,722.33,837.888,714.688,828.455,714.688z"/>
	</g>
</g>
<g id="cog2">
	<g>
		<path fill="#FC6F58" d="M669.476,354.339H647c-4.537-21.684-12.835-41.979-24.163-60.199l15.346-15.346
			c9.053-9.051,9.053-23.724,0-32.775l-25.266-25.266c-9.052-9.051-23.725-9.051-32.775,0l-14.81,14.81
			c-18.299-11.859-38.785-20.606-60.735-25.513v-20.59c0-12.8-10.374-23.174-23.174-23.174h-35.733
			c-12.799,0-23.173,10.374-23.173,23.174v20.589c-21.949,4.907-42.437,13.652-60.734,25.513l-14.812-14.81
			c-9.051-9.051-23.724-9.051-32.774,0l-25.266,25.266c-9.052,9.051-9.052,23.724,0,32.775l15.346,15.346
			c-11.328,18.221-19.626,38.517-24.163,60.199H257.64c-12.8,0-23.174,10.374-23.174,23.174v35.73
			c0,12.8,10.374,23.174,23.174,23.174h23.604c4.997,21.026,13.531,40.669,24.945,58.284l-17.259,17.26
			c-9.052,9.052-9.052,23.725,0,32.775l25.266,25.267c9.052,9.051,23.725,9.051,32.774,0l17.797-17.797
			c17.531,10.895,36.99,18.957,57.749,23.596v25.491c0,12.8,10.374,23.174,23.173,23.174h35.731
			c12.799,0,23.173-10.374,23.173-23.174v-25.491c20.762-4.642,40.218-12.703,57.749-23.596l17.797,17.797
			c9.052,9.051,23.725,9.051,32.775,0l25.266-25.267c9.053-9.052,9.053-23.725,0-32.775l-17.259-17.259
			c11.418-17.615,19.948-37.258,24.945-58.284h23.607c12.801,0,23.175-10.374,23.175-23.174v-35.73
			C692.651,364.713,682.277,354.339,669.476,354.339z M463.561,471.945c-43.641,0-79.018-35.379-79.018-79.018
			s35.379-79.017,79.018-79.017c43.642,0,79.019,35.378,79.019,79.017C542.578,436.566,507.199,471.945,463.561,471.945z"/>
		<path fill="#F1543F" d="M669.476,354.339H647c-4.537-21.684-12.835-41.979-24.163-60.199l15.346-15.346
			c9.053-9.051,9.053-23.724,0-32.775l-25.266-25.266c-9.052-9.051-23.725-9.051-32.775,0l-14.81,14.81
			c-18.299-11.859-38.785-20.606-60.735-25.513v-20.59c0-12.8-10.374-23.174-23.174-23.174h-18.999v147.65
			c0.377-0.004,0.753-0.029,1.135-0.029c43.642,0,79.018,35.378,79.018,79.017c0,43.642-35.378,79.019-79.018,79.019
			c-0.382,0-0.758-0.021-1.135-0.03v152.553h18.999c12.8,0,23.174-10.378,23.174-23.174v-25.492
			c20.761-4.641,40.218-12.702,57.748-23.595L580.142,570c9.053,9.051,23.726,9.051,32.775,0l25.267-25.267
			c9.052-9.053,9.052-23.725,0-32.775l-17.26-17.259c11.418-17.615,19.949-37.258,24.946-58.284h23.606
			c12.801,0,23.175-10.374,23.175-23.174v-35.73C692.651,364.713,682.277,354.339,669.476,354.339z"/>
	</g>
</g>
</svg>
