<?xml version="1.0" encoding="utf-8"?>
<!-- Generator: Adobe Illustrator 16.0.3, SVG Export Plug-In . SVG Version: 6.00 Build 0)  -->
<!DOCTYPE svg PUBLIC "-//W3C//DTD SVG 1.1//EN" "http://www.w3.org/Graphics/SVG/1.1/DTD/svg11.dtd">
<svg version="1.1" id="Layer_1" xmlns="http://www.w3.org/2000/svg" xmlns:xlink="http://www.w3.org/1999/xlink" x="0px" y="0px"
	 width="480px" height="480px" viewBox="0 0 480 480" enable-background="new 0 0 480 480" xml:space="preserve">
<g id="Layer_4" display="none">
	<g display="inline">
		<g>
			<rect x="160.231" y="172.109" width="159.539" height="14.503"/>
			<rect x="305.266" y="193.864" width="14.504" height="14.504"/>
			<rect x="160.231" y="193.864" width="14.503" height="14.504"/>
			<rect x="232.749" y="124.972" width="14.503" height="14.504"/>
			<rect x="254.504" y="124.972" width="14.504" height="14.504"/>
			<rect x="210.993" y="124.972" width="14.504" height="14.504"/>
			<rect x="189.238" y="124.972" width="14.504" height="14.504"/>
			<rect x="276.259" y="124.972" width="14.503" height="14.504"/>
			<path d="M371.065,386.885c-6.36,3.4-11.882,6.33-23.392,6.4l42.75-128.24c1.17-3.529-0.52-7.369-3.91-8.9l-39.229-17.66v-70
				c0-12-9.761-21.76-21.761-21.76h-10.88v-36.26c0-4-3.239-7.25-7.25-7.25h-61.641v-29.01h-14.5v29.011h-61.64
				c-4.01,0-7.25,3.25-7.25,7.25v36.26h-10.88c-12,0-21.76,9.76-21.76,21.76v70l-39.23,17.661c-3.39,1.521-5.08,5.371-3.9,8.899
				l42.74,128.229c-11.51-0.061-17.02-2.989-23.39-6.391c-7.12-3.789-15.19-8.1-30.6-8.1v14.5c11.78,0,17.34,2.971,23.78,6.399
				c7.12,3.8,15.19,8.109,30.6,8.109c4.08,0,7.56-0.27,10.64-0.83c8.9-1.399,14.78-4.528,19.97-7.299
				c6.42-3.422,11.97-6.381,23.71-6.381c11.79,0,17.35,2.971,23.78,6.399c7.13,3.8,15.2,8.109,30.61,8.109
				c15.41,0,23.48-4.311,30.61-8.109c6.431-3.43,11.99-6.399,23.78-6.399c11.779,0,17.34,2.959,23.789,6.391
				c5.211,2.76,11.101,5.89,20.031,7.289c3.079,0.562,6.56,0.83,10.64,0.83c15.409,0,23.479-4.311,30.6-8.109
				c6.44-3.43,12-6.399,23.78-6.399v-14.5C386.255,378.785,378.185,383.096,371.065,386.885z M374.585,266.676l-5.2,15.6
				l-123.63-56.799v-16.77L374.585,266.676z M176.865,117.725h123.281v29H176.865V117.725z M144.235,168.485
				c0-4,3.25-7.25,7.25-7.25h174.041c4,0,7.25,3.25,7.25,7.25v63.48l-91.299-41.09c-1.892-0.851-4.062-0.851-5.952,0l-91.29,41.08
				V168.485z M102.425,266.676l128.83-57.97v16.77l-123.63,56.799L102.425,266.676z M333.065,391.256
				c-3.521-1.15-6.44-2.691-9.65-4.391c-7.12-3.791-15.2-8.08-30.59-8.08c-15.41,0-23.49,4.311-30.61,8.1
				c-6.439,3.439-12,6.4-23.78,6.4c-11.79,0-17.35-2.961-23.78-6.4c-7.12-3.789-15.2-8.1-30.61-8.1c-15.36,0-23.42,4.301-30.53,8.08
				c-3.18,1.699-6.08,3.24-9.57,4.379l-31.71-95.129l119.02-54.68v86.59h14.5v-86.59l119.021,54.68L333.065,391.256z"/>
		</g>
	</g>
</g>
<g id="Layer_3">
	<path fill="#1A6D89" d="M240,2c132.549,0,240,105.452,240,238c0,137.88-107.453,240-240,240S0,377.88,0,240
		C0,107.452,107.452,2,240,2z"/>
</g>
<g id="Layer_2">
	<path opacity="0.5" fill="#183D51" enable-background="new    " d="M238.435,407.795l86.772,56.039
		c11.959,5.333,139.293-59.334,152.904-192.541c0.063-0.636,1.893-33.809,1.889-34.445L240.131,78.5L238.435,407.795z"/>
</g>
<g id="Layer_12">
	<path fill="#2B2C28" d="M232.75,78.5v29.01h-61.64c-4.011,0-7.25,3.25-7.25,7.25v36.261h-10.88c-12,0-21.761,9.76-21.761,21.76v70
		l-39.229,17.66c-3.39,1.519-5.08,5.369-3.9,8.898l41.122,123.374c2.539,10.575,5.278,17.243,4.469,19.335
		c3.039-0.09,5.743-0.344,8.18-0.788c8.9-1.399,14.78-4.528,19.97-7.3c6.42-3.42,11.97-6.38,23.71-6.38
		c11.79,0,17.349,2.969,23.78,6.399c7.13,3.8,15.2,8.109,30.609,8.109H240V78.5H232.75z"/>
	<path fill="#131515" d="M349.17,397.58l42.75-128.24c1.17-3.529-0.519-7.37-3.91-8.898l-39.229-17.66v-70
		c0-12-9.76-21.76-21.76-21.76H316.14V114.76c0-4-3.238-7.25-7.25-7.25h-61.64V78.5H240v333.588
		c15.359-0.009,23.42-4.319,30.54-8.109c6.429-3.43,11.99-6.399,23.78-6.399c11.778,0,17.34,2.96,23.79,6.39
		c5.21,2.762,11.099,5.892,20.028,7.29c2.305,0.419,4.834,0.676,7.671,0.778C346.371,407.657,348.358,401.689,349.17,397.58z"/>
	<line fill="none" x1="586.67" y1="776.5" x2="586.67" y2="752.76"/>
	<line fill="none" x1="586.67" y1="419.17" x2="586.67" y2="412.09"/>
</g>
<g id="Layer_5">
	<path fill="#C7D8D7" d="M145.729,172.779c0-4,3.25-7.25,7.25-7.25h174.04c4,0,7.25,3.25,7.25,7.25v63.48l-91.299-41.09
		c-1.891-0.85-4.061-0.85-5.95,0l-91.291,41.08V172.779L145.729,172.779z"/>
</g>
<g id="Layer_10">
	<rect x="161.726" y="176.404" fill="#82A3A1" width="159.539" height="14.502"/>
	<rect x="306.761" y="198.158" fill="#82A3A1" width="14.504" height="14.504"/>
	<rect x="161.726" y="198.158" fill="#82A3A1" width="14.504" height="14.504"/>
	<rect x="241.495" y="176.404" fill="#82A3A1" width="79.77" height="14.502"/>
</g>
<g id="Layer_9">
	<polygon fill="#C7D8D7" points="376.08,270.971 370.88,286.57 247.25,229.77 247.25,213 	"/>
</g>
<g id="Layer_8">
	<polygon fill="#D9EDEC" points="103.92,270.971 232.75,213 232.75,229.77 109.12,286.57 	"/>
</g>
<g id="Layer_7">
	<rect x="178.36" y="122.02" fill="#D9EDEC" width="123.281" height="29"/>
	<rect x="239.683" y="122.02" fill="#C7D8D7" width="61.641" height="29"/>
</g>
<g id="Layer_11">
	<rect x="234.243" y="129.267" fill="#82A3A1" width="14.504" height="14.504"/>
	<rect x="255.999" y="129.267" fill="#82A3A1" width="14.504" height="14.504"/>
	<rect x="212.487" y="129.267" fill="#82A3A1" width="14.504" height="14.504"/>
	<rect x="190.733" y="129.267" fill="#82A3A1" width="14.504" height="14.504"/>
	<rect x="277.754" y="129.267" fill="#82A3A1" width="14.503" height="14.504"/>
</g>
<g id="Layer_6">
	<path fill="#FF6262" d="M241.729,382.43v20.859h-0.07c-11.792,0-17.351-2.959-23.781-6.399c-7.12-3.79-15.2-8.101-30.61-8.101
		c-15.36,0-23.42,4.311-30.53,8.08c-3.18,1.699-6.08,3.239-9.569,4.381l-6.271-18.82H241.729z"/>
	<path fill="#FF0F27" d="M341.4,382.43l-6.279,18.83c-3.521-1.15-6.441-2.689-9.65-4.391c-7.119-3.789-15.199-8.08-30.59-8.08
		c-15.41,0-23.49,4.311-30.609,8.101c-6.43,3.431-11.98,6.39-23.711,6.399V382.43H341.4z"/>
</g>
</svg>
